<?xml version="1.0" encoding="utf-8"?>
<svg id="Layer_1" data-name="Layer 1" viewBox="0 0 4092.81 4599.39" xmlns="http://www.w3.org/2000/svg">
  <defs>
    <style>.cls-1{fill:#6017de;}.cls-2{fill:#6115de;}.cls-3{fill:#671fe0;}.cls-4{fill:#040303;}.cls-5{fill:#100c0c;}.cls-6{fill:#050404;}.cls-7{fill:#070606;}.cls-8{fill:#060505;}.cls-9{fill:#090808;}.cls-10{fill:#6318df;}.cls-11{fill:#6b25e1;}.cls-12{fill:#712de2;}.cls-13{fill:#0e0c0c;}.cls-14{fill:#6922e0;}.cls-15{fill:#7531e2;}.cls-16{fill:#6f29e1;}.cls-17{fill:#7b3be4;}.cls-18{fill:#8c55e7;}.cls-19{fill:#a473eb;}.cls-20{fill:#151313;}.cls-21{fill:#cfb5f5;}.cls-22{fill:#dfd7f9;}.cls-23{fill:#9362e9;}.cls-24{fill:#b294f0;}.cls-25{fill:#8448e5;}.cls-26{fill:#5c0fdd;}.cls-27{fill:#03f9b9;}</style>
  </defs>
  <path class="cls-4" d="M 1644.56 1442.29 C 1648.71 1445.29 1651.5 1446.64 1653.41 1448.77 C 1664.94 1461.68 1676.23 1474.77 1687.69 1487.77 C 1706.147 1508.837 1727.583 1527.093 1751.32 1541.96 C 1802.11 1573.63 1857.15 1583.2 1915.99 1573.96 C 1955.27 1567.79 1991.64 1553.78 2026.2 1534.64 C 2071.31 1509.64 2111.96 1478.64 2148.71 1442.55 C 2152.51 1438.82 2155.89 1434.41 2160.29 1431.63 C 2163.94 1429.32 2168.93 1427.63 2173.13 1427.96 C 2187.69 1429.17 2192.96 1437.43 2187.69 1451.3 C 2157.04 1531.99 2118.39 1608.3 2062.14 1674.56 C 2041.37 1699.03 2018.32 1721.09 1991.14 1738.42 C 1970.79 1751.42 1949.2 1760.98 1925.14 1765.42 C 1896.44 1770.72 1869.59 1765.83 1843.57 1753.94 C 1823.35 1744.68 1806.13 1731.16 1790.56 1715.4 C 1775.148 1699.716 1761.757 1682.167 1750.7 1663.16 C 1727.7 1623.96 1709.36 1582.73 1697.17 1538.94 C 1693.7 1526.47 1688.46 1515.76 1679.76 1506.02 C 1665.14 1489.573 1653.56 1470.659 1645.56 1450.16 C 1644.9 1448.52 1645.07 1446.59 1644.56 1442.29 Z"/>
  <path class="cls-6" d="M 90.01 2458.84 C 92.71 2460.2 95.94 2461.01 98.01 2463.02 C 105.65 2470.44 113.01 2478.15 120.3 2485.93 C 145.82 2513.17 172.38 2539.32 200.8 2563.55 C 228.8 2587.37 258.47 2608.63 291.05 2625.71 C 321.9 2641.88 354.15 2653.71 389.05 2657.77 C 436.42 2663.33 478.72 2651.61 516.05 2622.07 C 538.8 2604.07 556.35 2581.56 571.88 2557.38 C 596.52 2519.03 613.19 2477.02 627.25 2433.91 C 632.82 2416.85 637.36 2399.46 642.55 2382.27 C 645.1 2373.85 649.39 2370.58 654.55 2372.47 C 658.97 2374.07 660.91 2378.4 659.27 2386.2 C 644.61 2455.71 622.82 2522.48 581.27 2581.2 C 574.597 2590.207 570.997 2601.121 571 2612.33 C 570.26 2655.75 565 2698.62 551.69 2740.19 C 544.97 2761.19 536.47 2781.38 523.61 2799.46 C 509.77 2818.92 492.61 2834.2 469.21 2841.15 C 446.05 2848.01 423.21 2846.24 400.65 2838.25 C 375.93 2829.49 353.88 2815.94 333.17 2800.09 C 303.94 2777.72 278.56 2751.38 254.62 2723.54 C 223.71 2687.6 196.75 2648.79 172.04 2608.46 C 152.93 2577.26 135.04 2545.31 116.65 2513.69 C 107.983 2498.757 99.317 2483.817 90.65 2468.87 C 89.38 2466.67 88.5 2464.24 87.44 2461.92 Z"/>
  <path class="cls-7" d="M 3388.45 2437.87 C 3383.89 2440.5 3379.98 2442.73 3376.11 2445 C 3373.83 2446.34 3371.72 2448.52 3369.31 2448.91 C 3366.767 2449.121 3364.233 2448.411 3362.17 2446.91 C 3361.17 2446.15 3361.31 2443.3 3361.46 2441.44 C 3361.56 2440.21 3362.52 2439.01 3363.24 2437.9 C 3375.33 2419.18 3403.02 2407.8 3424.49 2413.05 C 3434.296 2415.448 3443.023 2421.046 3449.29 2428.96 C 3452.4 2432.78 3452.29 2438.55 3449.29 2441.85 C 3446.29 2445.15 3440.29 2446.25 3436.39 2443.77 C 3433.03 2441.66 3430.39 2438.41 3426.9 2436.51 C 3423.03 2434.37 3418.64 2433.17 3413.65 2431.25 C 3405.57 2448.47 3404.65 2465.66 3405.57 2482.74 C 3406.99 2509.3 3416.23 2533.34 3431.88 2554.93 C 3451.88 2582.47 3477.43 2603.54 3507.18 2619.36 C 3551.68 2643.01 3599.26 2657.47 3649.18 2664.36 C 3707.37 2672.528 3766.504 2671.123 3824.24 2660.2 C 3861.575 2653.247 3897.798 2641.272 3931.92 2624.6 C 3953.57 2613.98 3973.5 2600.76 3991.04 2584.1 C 4003.2 2572.56 4013.78 2559.74 4021.88 2545.03 C 4036.62 2518.16 4040.56 2489.93 4032.46 2460.16 C 4031.24 2455.69 4030.22 2451.16 4029 2446.69 C 4028.86 2446.17 4028 2445.83 4027 2444.96 C 4020.67 2446.86 4017 2452.62 4012 2456.72 C 4010 2458.34 4007.56 2460.25 4005.3 2460.27 C 4003.38 2460.27 3999.99 2457.95 3999.81 2456.37 C 3999.498 2453.121 4000.178 2449.854 4001.76 2447 C 4016.21 2422.17 4049.39 2407.35 4077.35 2413.16 C 4081.267 2413.951 4085.034 2415.358 4088.51 2417.33 C 4092.24 2419.49 4093.44 2423.42 4092.51 2427.72 C 4091.58 2432.02 4088.51 2435.21 4084.31 2435.22 C 4079.2 2435.22 4074.08 2433.65 4069.21 2432.81 C 4066 2435.3 4067.95 2437.73 4068.72 2440.05 C 4083.1 2483.54 4078.95 2525.36 4057.35 2565.56 C 4043.9 2590.56 4025.2 2611.23 4003.58 2629.38 C 3987.312 2643.177 3969.524 2655.074 3950.56 2664.84 C 3940.82 2669.84 3933.43 2676.56 3926.86 2685.39 C 3896.15 2726.69 3856.57 2755.94 3806.78 2770.39 C 3763.39 2783 3719.93 2781.39 3676.57 2770.05 C 3623.57 2756.13 3576.75 2730 3533.84 2696.44 C 3526.5 2690.7 3519.29 2684.74 3512.38 2678.49 C 3491.16 2659.28 3470.67 2639.34 3448.06 2621.62 C 3426.485 2604.628 3408.95 2583.059 3396.72 2558.47 C 3378.53 2522.34 3373.66 2485.09 3388.4 2446.47 C 3388.942 2445.255 3389.413 2444.01 3389.81 2442.74 C 3389.92 2442.23 3389.5 2441.57 3388.45 2437.87 Z"/>
  <path class="cls-8" d="M 2366.47 2386.66 L 2342.73 2397.66 C 2338.33 2394.08 2339.4 2390.86 2342.04 2388.6 C 2346.55 2384.75 2351.18 2380.68 2356.46 2378.16 C 2369.22 2372.08 2383.06 2369.65 2397.09 2369.03 C 2400.69 2368.87 2404.59 2370.86 2407.98 2372.6 C 2409.24 2373.25 2410.21 2376.17 2409.89 2377.75 C 2409.327 2379.672 2407.954 2381.253 2406.13 2382.08 C 2403.75 2382.95 2400.96 2382.69 2398.34 2382.9 L 2379.81 2384.34 C 2395.06 2415.9 2409.13 2445.72 2432.81 2470.09 C 2481.61 2520.27 2540.81 2543.91 2610.49 2541.51 C 2671.22 2539.43 2724.33 2516.75 2772.37 2480.86 C 2814.08 2449.71 2846.95 2410.79 2872.66 2365.64 C 2876.559 2358.69 2880.968 2352.039 2885.85 2345.74 C 2889.91 2340.57 2895.47 2339.88 2900.03 2342.61 C 2905.84 2346.1 2908.15 2351.21 2906.03 2357.89 C 2886.8 2417.42 2867.31 2476.84 2835.58 2531.33 C 2819.78 2558.47 2802.16 2584.24 2780.67 2607.23 C 2760.04 2629.32 2736.74 2647.87 2709.25 2660.9 C 2667.33 2680.78 2624.61 2682.11 2581.25 2666.32 C 2550.76 2655.21 2524.51 2637.24 2501.05 2615.05 C 2482.704 2597.572 2466.124 2578.329 2451.55 2557.6 C 2415.87 2507.32 2387.72 2453.24 2370.21 2393.9 C 2369.68 2392.05 2368.45 2390.42 2366.47 2386.66 Z"/>
  <path class="cls-4" d="M 3787.88 3703.34 C 3788.36 3709.98 3785.99 3715.04 3779.98 3718.23 C 3774.45 3721.17 3769.43 3719.23 3765.06 3716.04 C 3759.686 3712.115 3754.633 3707.768 3749.95 3703.04 C 3715.58 3667.91 3672.89 3650.04 3624.78 3648.93 C 3526.07 3646.75 3444.7 3683.93 3383.38 3762.49 C 3379.28 3767.73 3375.45 3773.21 3371.06 3778.18 C 3367.72 3781.97 3361.62 3783.09 3358.49 3780.06 C 3355.94 3777.58 3353.49 3773.42 3353.61 3770.06 C 3353.781 3762.065 3354.923 3754.12 3357.01 3746.4 C 3377.92 3673.48 3412.25 3608.09 3467.07 3554.69 C 3493.14 3529.31 3522.84 3509.55 3558.38 3499.51 C 3602.05 3487.19 3642.73 3494 3680.63 3518.29 C 3700.826 3531.36 3718.36 3548.144 3732.3 3567.75 C 3760.07 3606.18 3776.3 3649.56 3786.86 3695.34 C 3787.339 3697.987 3787.68 3700.657 3787.88 3703.34 Z"/>
  <path class="cls-9" d="M 1944.84 2498.61 C 1943.61 2501.33 1942.36 2503.68 1941.45 2506.15 C 1921.25 2561.28 1884.7 2603.44 1837.29 2636.76 C 1791.53 2668.93 1740.74 2689.89 1686.29 2702.1 C 1593.01 2723.04 1501.23 2718 1411.39 2684.7 C 1372.59 2670.396 1336.725 2649.131 1305.56 2621.95 C 1277.06 2597.14 1254.51 2567.75 1238.83 2533.28 C 1229.1 2511.89 1222.74 2489.63 1222.02 2465.96 C 1221.91 2462.23 1221.02 2458.53 1220.27 2452.9 C 1215.18 2456.53 1211.63 2459.13 1208 2461.64 C 1204.14 2464.31 1200.35 2463.27 1196.9 2460.89 C 1192.67 2457.98 1190.81 2453.79 1192.17 2448.73 C 1197.39 2429.32 1225.47 2418.15 1242.76 2428.52 C 1247.42 2431.33 1249.51 2435.9 1246.84 2440.36 C 1243.23 2446.36 1245.36 2451.76 1246.16 2457.66 C 1253.94 2515.3 1284.16 2558.83 1330.16 2592.72 C 1367.66 2620.37 1409.62 2638.38 1454.56 2649.57 C 1558.81 2675.57 1660.48 2667.73 1759 2624.39 C 1795.693 2608.314 1828.938 2585.307 1856.91 2556.63 C 1873.362 2540.054 1886.92 2520.838 1897.02 2499.78 C 1898.63 2496.37 1899.65 2492.67 1901.34 2488.03 C 1897.64 2487.16 1895.21 2486.54 1892.75 2486.03 C 1888.63 2485.18 1884.34 2483.59 1884.69 2478.9 C 1884.89 2476.21 1887.63 2472.9 1890.15 2471.33 C 1908.48 2460.24 1940.48 2462.54 1956.09 2475.7 C 1962.74 2481.3 1963.65 2489.87 1957.92 2494.7 C 1956.319 2495.876 1954.495 2496.713 1952.56 2497.16 C 1950.03 2497.86 1947.39 2498.16 1944.84 2498.61 Z"/>
  <path class="cls-9" d="M 2845.35 3758.31 C 2844.87 3763.65 2844.41 3772.31 2843.19 3780.79 C 2842.671 3784.917 2839.533 3788.229 2835.44 3788.97 C 2831.1 3789.9 2827.14 3788.53 2824.96 3784.97 C 2821.54 3779.34 2818.11 3773.49 2816.11 3767.27 C 2811.43 3752.72 2807.36 3737.95 2803.46 3723.16 C 2789.53 3670.34 2773.64 3618.16 2750.89 3568.37 C 2741.48 3547.75 2731.39 3527.37 2717.02 3509.72 C 2709.5 3500.46 2701.46 3491.36 2692.39 3483.72 C 2673.08 3467.36 2651.09 3465.55 2629.13 3477.33 C 2617.55 3483.54 2606.87 3491.98 2597.13 3500.86 C 2574.77 3521.15 2557.13 3545.45 2541.42 3571.09 C 2516.65 3611.53 2497.42 3654.68 2479.91 3698.62 C 2467.38 3730.14 2455.91 3762.1 2443.91 3793.83 C 2440.85 3801.91 2437.7 3809.98 2434.1 3817.83 C 2432.386 3821.421 2430.069 3824.691 2427.25 3827.5 C 2422.84 3831.96 2413.67 3829.41 2412.95 3823.21 C 2412.209 3816.644 2412.421 3810.005 2413.58 3803.5 C 2419.4 3770.66 2429.06 3738.82 2439.34 3707.15 C 2458.1 3649.39 2481.54 3593.67 2512.07 3541.06 C 2523.79 3520.87 2536.57 3501.4 2551.77 3483.61 C 2565.71 3467.29 2581.32 3452.87 2599.97 3442.02 C 2641.71 3417.733 2682.237 3419.65 2721.55 3447.77 C 2739.69 3460.77 2753.99 3477.35 2766.18 3495.77 C 2789.5 3531.09 2805.42 3569.68 2817.3 3610.17 C 2828.57 3648.58 2836.55 3687.66 2842.68 3727.17 C 2844.07 3736.31 2844.3 3745.69 2845.35 3758.31 Z"/>
  <path class="cls-4" d="M 210.56 3484.49 C 154.99 3485.58 110.97 3440.41 106.45 3390.77 C 101.78 3339.5 130.1 3292.42 176.66 3274.94 C 246.97 3248.53 323.66 3305.59 314 3385.2 C 312.813 3395.114 310.618 3404.881 307.45 3414.35 C 293.642 3456.166 254.597 3484.431 210.56 3484.49 Z"/>
  <path class="cls-8" d="M 1439.36 3500.71 C 1385.36 3501.43 1338.26 3455.07 1338.84 3398.14 C 1339.32 3351.68 1375.56 3298.5 1440.1 3298.14 C 1497.85 3297.86 1541.9 3343.53 1541.53 3399.84 C 1541.11 3463.97 1487.76 3502.54 1439.36 3500.71 Z"/>
  <path class="cls-13" d="M 1499.08 3697.03 C 1506.8 3692.52 1511.48 3686.03 1516.08 3679.62 C 1527.83 3663.47 1538.89 3646.79 1550.9 3630.83 C 1559.69 3619.15 1568.9 3607.63 1579.09 3597.22 C 1590.854 3585.222 1606.138 3577.288 1622.72 3574.57 C 1638.5 3571.8 1652.17 3575.82 1662.36 3587.87 C 1669.165 3596.047 1674.941 3605.027 1679.56 3614.61 C 1686.83 3629.54 1692.56 3645.22 1699.31 3660.42 C 1703.1 3668.928 1707.319 3677.239 1711.95 3685.32 C 1713.8 3688.54 1717.23 3690.84 1720.05 3693.68 C 1728.34 3689.42 1732.57 3682.46 1737.18 3676.15 C 1747.79 3661.62 1757.6 3646.51 1768.29 3632.06 C 1777 3620.3 1786.21 3608.87 1795.8 3597.83 C 1802.8 3589.73 1811.74 3583.83 1821.64 3579.4 C 1832.3 3574.59 1842.41 3575.32 1852.17 3581.19 C 1864.852 3588.744 1875.285 3599.551 1882.39 3612.49 C 1887.428 3621.86 1891.773 3631.586 1895.39 3641.59 C 1904.9 3667.14 1913.9 3692.87 1923.07 3718.59 C 1923.799 3720.453 1924.374 3722.373 1924.79 3724.33 C 1926.36 3732.79 1921.79 3740.33 1913.5 3743.01 C 1906.68 3745.25 1898.62 3741.93 1894.97 3734.92 C 1893.48 3731.958 1892.468 3728.778 1891.97 3725.5 C 1887.21 3695.77 1877.31 3667.5 1867.72 3639.13 C 1863.17 3625.66 1856.46 3613.53 1845.15 3604.46 C 1839.01 3599.53 1835.66 3599.39 1828.84 3603.25 C 1819.36 3608.63 1811.91 3616.33 1805.65 3624.97 C 1796.29 3637.9 1787.5 3651.27 1778.65 3664.59 C 1770.93 3676.26 1763.93 3688.41 1755.83 3699.79 C 1750.875 3706.875 1745.05 3713.308 1738.49 3718.94 C 1728.65 3727.22 1716.13 3727.2 1705.02 3720.35 C 1695.02 3714.2 1688.02 3705.27 1683.23 3694.87 C 1674.94 3676.74 1667.42 3658.24 1659.59 3639.87 C 1655.67 3630.7 1652.37 3621.21 1647.71 3612.44 C 1640.6 3599.05 1633.71 3596.77 1619.83 3602.07 C 1609.14 3606.063 1599.764 3612.937 1592.74 3621.93 C 1583.74 3633.48 1575.45 3645.56 1567.09 3657.57 C 1556.43 3672.87 1546.26 3688.5 1535.38 3703.63 C 1531.076 3709.534 1526.103 3714.92 1520.56 3719.68 C 1509.44 3729.3 1496.98 3730.93 1483.39 3724.68 C 1470.87 3718.88 1461.49 3709.68 1453.7 3698.68 C 1442.1 3682.16 1433.56 3664.16 1427.28 3645.1 C 1423.94 3634.99 1421.1 3624.7 1417.36 3614.75 C 1408.97 3592.47 1399.41 3593.21 1383.22 3606.23 C 1375.53 3612.41 1368.93 3620.23 1362.95 3628.16 C 1347.16 3649.05 1335.87 3672.36 1327.95 3697.3 C 1325.53 3704.91 1323.14 3712.55 1320.06 3719.9 C 1318.59 3723.41 1315.85 3726.56 1313.14 3729.35 C 1310.14 3732.35 1304.02 3730.23 1303.87 3726.1 C 1303.502 3720.125 1303.696 3714.129 1304.45 3708.19 C 1310.82 3666.95 1328.56 3630.9 1355.45 3599.19 C 1364.6 3588.4 1375.51 3579.82 1389.08 3574.89 C 1405.31 3568.99 1419.56 3572.2 1430.75 3584.99 C 1436.33 3591.38 1440.5 3599.24 1444.22 3606.99 C 1448.54 3615.99 1451.72 3625.47 1455.28 3634.8 C 1461.187 3650.382 1469.05 3665.151 1478.68 3678.75 C 1483.66 3685.84 1488.93 3692.71 1499.08 3697.03 Z"/>
  <path class="cls-7" d="M 1695.01 3413.26 C 1693.78 3361.99 1737.51 3320.11 1787.01 3319.47 C 1833.01 3318.88 1881.31 3354.79 1881.73 3412.78 C 1882.11 3466.12 1839.83 3506.63 1787.6 3506.54 C 1736.28 3506.45 1695.22 3464.7 1695.01 3413.26 Z"/>
  <path class="cls-6" d="M 1765.21 2442.27 C 1764.9 2493.16 1725.43 2532.12 1676.95 2531.27 C 1617.88 2530.27 1583.72 2485.7 1584.11 2439.36 C 1584.55 2389.29 1625.49 2348.96 1674.73 2349.72 C 1725.184 2350.498 1765.573 2391.812 1765.21 2442.27 Z"/>
  <path class="cls-4" d="M 256.17 2465.51 C 211.77 2466.9 165.1 2432.06 165.07 2374.69 C 165.07 2327.32 200.96 2285.5 255.55 2285.19 C 303.39 2284.93 345.41 2321.61 345.65 2375.19 C 345.9 2431.8 299.2 2466.4 256.17 2465.51 Z"/>
  <path class="cls-8" d="M 795.98 1644.41 C 746.2 1644.72 705.624 1604.56 705.42 1554.78 C 705.13 1505.04 745.37 1464.93 795.16 1464.14 C 836.36 1463.48 884.66 1495.61 885.73 1553.96 C 886.64 1603.56 845.68 1644.26 795.98 1644.41 Z"/>
  <path class="cls-6" d="M 3159.71 4327.51 C 3159.916 4375.918 3120.598 4415.201 3072.19 4414.95 C 3013.11 4414.73 2982.52 4366.82 2982.67 4327.2 C 2982.86 4278.6 3023.86 4239.6 3070.21 4239.47 C 3115.84 4239.33 3159.83 4276.33 3159.71 4327.51 Z"/>
  <path class="cls-4" d="M 2919.68 1524.51 C 2873.04 1524.17 2835.33 1487.72 2835.84 1443.25 C 2836.33 1400.16 2873.26 1359.49 2918.65 1360.11 C 2963.55 1360.72 3000.73 1399.7 3000.65 1446.16 C 3000.56 1492.28 2960.93 1526.9 2919.68 1524.51 Z"/>
  <path class="cls-13" d="M 2803.64 1716.56 C 2765.71 1716.09 2729.89 1706.84 2696.04 1689.99 C 2634.35 1659.26 2585.94 1613.42 2546.66 1557.42 C 2543.29 1552.61 2541.08 1546.92 2538.82 1541.42 C 2538.21 1539.95 2538.92 1536.53 2539.9 1536.12 C 2541.97 1535.25 2545.4 1534.78 2546.9 1535.94 C 2553.187 1540.825 2559.196 1546.056 2564.9 1551.61 C 2581.66 1567.82 2597.9 1584.61 2614.98 1600.47 C 2634.424 1618.729 2655.593 1635.059 2678.19 1649.23 C 2703.78 1665.14 2730.65 1678.09 2760.27 1684.62 C 2804.74 1694.42 2847.55 1689.88 2888.65 1669.84 C 2920.26 1654.42 2946.8 1632.45 2970.65 1607.03 C 2994.03 1582.14 3013.65 1554.44 3030.65 1524.92 C 3033.95 1519.2 3036 1512.76 3038.9 1506.79 C 3043.48 1497.34 3052.19 1494.4 3060.23 1499.33 C 3068.42 1504.33 3070.23 1513.09 3064.6 1521.67 C 3053.7 1538.39 3042.88 1555.16 3031.69 1571.67 C 3010.69 1602.67 2986.89 1631.37 2958.17 1655.67 C 2928.3 1680.91 2895.17 1700.07 2856.94 1709.79 C 2839.46 1714.25 2821.76 1716.83 2803.64 1716.56 Z"/>
  <path class="cls-7" d="M 1821.98 4256.29 C 1855.56 4254.79 1897.35 4281.51 1898.07 4332.23 C 1898.67 4374.16 1863.68 4408.23 1821.6 4407.91 C 1780.299 4407.609 1746.929 4374.132 1746.76 4332.83 C 1746.4 4290.24 1779.66 4256.39 1821.98 4256.29 Z"/>
  <path class="cls-6" d="M 536.83 3309.54 C 579.98 3310.97 610.45 3343.25 610.38 3383.38 C 610.3 3426.6 574.49 3458.06 535.12 3458.24 C 494.02 3458.42 461.12 3423.94 461.93 3382.24 C 462.69 3344.47 492.56 3310.27 536.83 3309.54 Z"/>
  <path class="cls-6" d="M 976.02 4317.36 C 976.84 4352.54 948.36 4385.97 903.49 4387.05 C 865.4 4387.97 834.11 4358.16 833.6 4317.51 C 833.11 4277.93 864.88 4246.51 904.46 4246.56 C 945.73 4246.58 977.24 4282.16 976.02 4317.36 Z"/>
  <path class="cls-8" d="M 2843.39 4297.58 C 2843.2 4336.48 2810.89 4368.58 2772.06 4368.39 C 2733.42 4368.23 2702.99 4336.96 2703.54 4297.97 C 2704.08 4259.6 2735.43 4228.36 2773.54 4228.17 C 2812.085 4227.83 2843.486 4259.034 2843.39 4297.58 Z"/>
  <path class="cls-8" d="M 2640.46 1512.87 C 2605.82 1513.87 2571.91 1484.39 2571.94 1444.38 C 2571.94 1406.6 2602.73 1376.47 2640.68 1375.92 C 2671.15 1375.48 2710.76 1399.46 2710.27 1445.84 C 2709.79 1491.03 2670.72 1514.64 2640.46 1512.87 Z"/>
  <path class="cls-8" d="M 1180.24 1616.79 C 1148.49 1618.66 1114 1590.79 1114.24 1551.18 C 1114.49 1512.18 1147.68 1484.64 1182.48 1484.59 C 1219.02 1484.53 1248.15 1514.16 1248.38 1550.77 C 1248.64 1590.16 1213.9 1618.39 1180.24 1616.79 Z"/>
  <path class="cls-8" d="M 1457.12 2414.61 C 1456.22 2440.16 1442.49 2457.16 1422.41 2470.04 C 1399.24 2484.92 1370.94 2483.82 1349.56 2467.62 C 1328.41 2451.62 1319.72 2424.11 1327.56 2398.04 C 1335.73 2370.79 1362.12 2350.16 1389.43 2349.56 C 1416.74 2348.96 1442.88 2366.97 1452.36 2393.42 C 1454.79 2400.16 1455.56 2407.53 1457.12 2414.61 Z"/>
  <path class="cls-8" d="M 1252.05 4331.03 C 1251.65 4367.455 1221.703 4396.609 1185.28 4396.03 C 1148.97 4395.31 1121.57 4364.19 1122.74 4329.49 C 1123.93 4293.81 1153.03 4264.43 1188.34 4265.49 C 1230.76 4266.75 1253.56 4301.77 1252.05 4331.03 Z"/>
  <path class="cls-6" d="M 538.61 2388.48 C 502.883 2388.485 474.091 2359.202 474.7 2323.48 C 474.899 2287.757 504.304 2259.113 540.02 2259.85 C 574.45 2260.33 603.08 2289.35 603.26 2323.94 C 603.45 2359.47 574.28 2388.58 538.61 2388.48 Z"/>
  <path class="cls-9" d="M 900.66 1700.87 C 906.66 1698.95 910.86 1702.87 915.25 1705.64 C 925.4 1711.95 935.2 1718.86 945.48 1724.94 C 967 1737.67 990.1 1745.1 1015.4 1745.1 C 1042.48 1745.1 1062.45 1733.43 1075.71 1709.84 C 1081.181 1699.965 1085.221 1689.362 1087.71 1678.35 C 1089.39 1671.17 1093.58 1668.03 1098.4 1668.97 C 1104.09 1670.09 1107.4 1675.8 1104.72 1683.12 C 1095.86 1707.43 1090.59 1732.67 1084.29 1757.66 C 1080.788 1771.253 1074.297 1783.893 1065.29 1794.66 C 1046.15 1817.95 1019.22 1824.26 991.88 1811.85 C 979.64 1806.29 969.06 1798.28 959.27 1789.2 C 944.04 1775.09 931.58 1758.71 920.71 1741.12 C 914.56 1730.94 909.56 1720.03 900.84 1711.44 C 897.89 1708.51 897.06 1704.42 900.66 1700.87 Z"/>
  <path class="cls-7" d="M 3519.08 2439.48 C 3518.88 2406.05 3544.68 2380.1 3577.92 2379.42 C 3607.57 2378.82 3637.17 2401.69 3638.21 2438.42 C 3639.12 2470.85 3611.64 2498.37 3579.02 2498.72 C 3546.082 2498.981 3519.206 2472.419 3519.08 2439.48 Z"/>
  <path class="cls-7" d="M 1094.47 4599.39 C 1091.6 4596.25 1089.47 4593.73 1087.11 4591.39 C 1068.58 4572.76 1046.88 4568.82 1023.11 4579.16 C 1012.29 4583.87 1002.45 4590.84 991.57 4597.16 C 986.89 4596.99 986.04 4592.16 985.49 4588.76 C 984.24 4580.97 982.93 4572.76 983.97 4565.11 C 986.37 4547.25 991.22 4529.82 1000.79 4514.36 C 1005.404 4507.083 1011 4500.477 1017.42 4494.73 C 1042.74 4471.73 1079.86 4480.73 1095.47 4506.05 C 1109.47 4528.7 1115.77 4553.69 1107.95 4580.51 C 1105.9 4587.6 1102.83 4594.08 1094.47 4599.39 Z"/>
  <path class="cls-8" d="M 2673.56 2324.66 C 2672.48 2323.37 2671.67 2322.79 2671.76 2322.43 C 2672.4 2319.87 2673.22 2317.36 2674.07 2314.54 C 2670.66 2310.01 2666.72 2305.54 2663.71 2300.61 C 2649.623 2277.525 2653.897 2247.691 2673.9 2229.49 C 2693.84 2211.16 2725.82 2209.39 2747.67 2225.41 C 2769.597 2241.213 2777.288 2270.317 2766.03 2294.89 C 2764.39 2298.49 2762.03 2301.78 2759.97 2305.18 C 2758.19 2308.1 2758.17 2310.77 2758.85 2314.36 C 2760.7 2324.17 2757.67 2326.66 2748.42 2322.6 C 2729.71 2314.39 2711.01 2314.52 2691.92 2320.6 C 2685.76 2322.55 2679.71 2325.57 2673.56 2324.66 Z"/>
  <path class="cls-8" d="M 2018.68 1401.35 C 1991.62 1402.69 1961.45 1376.9 1961.75 1343.75 C 1962.04 1312.75 1987.29 1287.94 2018.09 1288.49 C 2048.89 1289.04 2074.18 1315.75 2073.78 1347.49 C 2073.35 1381.41 2044.37 1402.88 2018.68 1401.35 Z"/>
  <path class="cls-7" d="M 2809.38 3460.9 C 2780.72 3462.22 2754.75 3436.53 2755.3 3406.48 C 2755.85 3376.9 2779.48 3353.31 2808.86 3353.65 C 2840.38 3354.01 2863.79 3377.02 2864.25 3407.01 C 2864.68 3435.31 2838.97 3462.27 2809.38 3460.9 Z"/>
  <path class="cls-7" d="M 3446.95 3383.28 C 3473.62 3382.16 3498.86 3403.55 3498.63 3434.78 C 3498.43 3462 3478.39 3486.44 3446.82 3486.92 C 3419.44 3487.34 3396.33 3463.78 3396.08 3435.92 C 3395.81 3405.92 3419.81 3382.68 3446.95 3383.28 Z"/>
  <path class="cls-7" d="M 2971.62 4543.61 C 2971.45 4546.23 2971.73 4549.66 2970.93 4552.82 C 2969.38 4559.01 2965.63 4563.52 2958.93 4564.52 C 2952.75 4565.45 2947.1 4564.86 2943.14 4558.9 C 2939.216 4552.752 2934.918 4546.851 2930.27 4541.23 C 2914.11 4522.42 2892.57 4524.61 2877.02 4536.74 C 2870.73 4541.64 2864.84 4546.94 2861.44 4554.5 C 2859.32 4559.2 2855.27 4561.26 2850.12 4560.97 C 2845.25 4560.7 2840.97 4557.31 2840.03 4552.85 C 2839.617 4550.905 2839.443 4548.917 2839.51 4546.93 C 2840.41 4518.33 2866.51 4482.48 2893.12 4473.22 C 2915.57 4465.41 2940.12 4472.97 2955.27 4492.73 C 2966.56 4507.48 2971.56 4524.41 2971.62 4543.61 Z"/>
  <path class="cls-5" d="M 2121.77 4450.88 C 2121.66 4457.17 2117.66 4463.07 2112.13 4464.66 C 2105.83 4466.48 2099.23 4465.78 2096.38 4459.71 C 2091.52 4449.35 2082.93 4448.09 2073.38 4447.44 C 2049.28 4445.79 2025.61 4448.77 2002.19 4454.02 C 1953.573 4464.876 1906.567 4481.988 1862.35 4504.93 C 1858.23 4507.07 1854.23 4509.65 1849.85 4510.98 C 1847.96 4511.55 1844.43 4510.07 1843.18 4508.38 C 1841.93 4506.69 1841.77 4502.97 1842.89 4501.38 C 1845.444 4497.523 1848.709 4494.187 1852.51 4491.55 C 1867.03 4482.28 1881.28 4472.3 1896.7 4464.8 C 1945.48 4441.06 1997.19 4426.95 2051.12 4421.25 C 2066.36 4419.64 2081.75 4419.11 2096.58 4424.01 C 2102.213 4425.87 2107.55 4428.527 2112.43 4431.9 C 2118.47 4436.16 2121.89 4444.34 2121.77 4450.88 Z"/>
  <path class="cls-9" d="M 2459.93 2340.55 C 2456.58 2331.19 2465.93 2330.35 2467.68 2324.78 C 2464.86 2319.78 2461.39 2314.88 2459.14 2309.46 C 2451.82 2291.87 2454.49 2275.52 2467.26 2261.46 C 2480.26 2247.15 2496.94 2243.65 2514.58 2249.59 C 2532.22 2255.53 2542.85 2268.81 2544.68 2287.94 C 2545.51 2296.65 2544.62 2305.22 2540.09 2312.94 C 2536.52 2319.07 2531.77 2324.49 2534.66 2332.81 C 2535.81 2336.14 2529.94 2339.95 2526.35 2339.12 C 2525.712 2338.959 2525.097 2338.717 2524.52 2338.4 C 2506.52 2328.84 2488.69 2331.68 2470.71 2338.47 C 2467.27 2339.77 2463.4 2339.91 2459.93 2340.55 Z"/>
  <path class="cls-7" d="M 2132.63 4338.59 C 2132.1 4363.09 2106.91 4383.04 2081.88 4380.81 C 2058.76 4378.74 2039.82 4358.54 2041.12 4335.12 C 2042.7 4306.83 2064.72 4289.37 2089.77 4290.84 C 2115.14 4292.33 2134.02 4313.24 2132.63 4338.59 Z"/>
  <path class="cls-13" d="M 1778.81 1385.02 C 1753.97 1385.45 1733.97 1366.48 1733.27 1341.83 C 1732.58 1317.68 1752.53 1296.83 1776.78 1296.4 C 1801.03 1295.97 1822.16 1315.57 1822.28 1339.88 C 1822.41 1368.73 1799.43 1385.43 1778.81 1385.02 Z"/>
  <path class="cls-9" d="M 2503.27 3308.29 C 2528.27 3308.2 2547.8 3327.12 2548.03 3351.69 C 2548.25 3375.84 2529.82 3395.43 2506.38 3396 C 2482.21 3396.58 2460.21 3375.18 2460.04 3350.91 C 2459.87 3327.35 2479.11 3308.39 2503.27 3308.29 Z"/>
  <path class="cls-5" d="M 70.63 2278.35 C 76.63 2239.71 88.33 2203.35 113.63 2172.53 C 122.19 2162.09 132.39 2153.78 145.86 2150.07 C 156.2 2147.22 165.75 2148.98 174.47 2154.59 C 177.64 2156.59 180.14 2160.12 182.15 2163.43 C 184.43 2167.16 181.9 2173.71 177.8 2175.22 C 174.688 2176.317 171.448 2177.01 168.16 2177.28 C 150.32 2178.97 136.68 2187.97 127.03 2202.44 C 119.69 2213.44 112.84 2224.99 107.65 2237.11 C 101.13 2252.32 96.65 2268.39 91.02 2283.99 C 89.968 2287.07 88.176 2289.845 85.8 2292.07 C 81.55 2295.72 72.49 2291.99 71.34 2286.38 C 70.937 2283.721 70.7 2281.039 70.63 2278.35 Z"/>
  <path class="cls-9" d="M 3876.06 2421.16 C 3853.81 2420.87 3835.54 2401.98 3836.21 2379.97 C 3836.88 2358.29 3854.68 2340.43 3875.71 2340.36 C 3897.61 2340.27 3915 2358.69 3914.99 2381.98 C 3914.99 2404.28 3897.94 2421.44 3876.06 2421.16 Z"/>
  <path class="cls-5" d="M 1815.93 4172.73 C 1821.28 4175.8 1827.93 4178.86 1833.67 4183.04 C 1859.02 4201.38 1887.61 4211.14 1918.15 4216.23 C 1925.32 4217.43 1932.72 4218.75 1939.34 4221.58 C 1952.65 4227.29 1954.34 4244.06 1943.02 4252.27 C 1938.675 4255.466 1933.222 4256.772 1927.9 4255.89 C 1921.34 4254.94 1914.79 4253.75 1908.34 4252.21 C 1876.75 4244.67 1847.83 4231.91 1825.59 4207.32 C 1819.44 4200.51 1814.48 4192.52 1809.68 4184.64 C 1806.66 4179.68 1809.39 4175.82 1815.93 4172.73 Z"/>
  <path class="cls-5" d="M 1199.12 1334.68 C 1190.81 1336.81 1182.43 1338.68 1174.22 1341.18 C 1169.81 1342.51 1165.77 1345.03 1161.43 1346.67 C 1157.52 1348.15 1153.5 1348.56 1151.07 1344.05 C 1148.76 1339.78 1150.77 1336.1 1153.84 1333.46 C 1170.18 1319.41 1189.1 1312.26 1210.74 1314.1 C 1231.09 1315.82 1247.19 1325.83 1259.79 1341.6 C 1274.29 1359.75 1281.97 1380.77 1285.11 1403.6 C 1285.45 1406.224 1285.39 1408.884 1284.93 1411.49 C 1283.93 1417.35 1278.21 1422.37 1272.29 1422.38 C 1266.65 1422.38 1261.51 1420.26 1259.4 1414.72 C 1257.67 1409.722 1256.464 1404.557 1255.8 1399.31 C 1253.52 1384.71 1249.58 1370.72 1241.23 1358.31 C 1231.26 1343.53 1217.75 1335.09 1199.12 1334.68 Z"/>
  <path class="cls-9" d="M 3698.03 3435.16 C 3697.62 3455.16 3680.28 3472.32 3660.85 3471.88 C 3641.15 3471.43 3624.32 3453.54 3625.1 3433.88 C 3625.841 3413.587 3642.985 3397.791 3663.27 3398.71 C 3682.78 3399.47 3698.42 3415.87 3698.03 3435.16 Z"/>
  <path class="cls-5" d="M 1680.18 2260.08 C 1684.43 2255.26 1686.26 2251.64 1689.18 2250.17 C 1700.77 2244.29 1713.38 2242.86 1726.05 2244.99 C 1770 2252.36 1802.92 2275.99 1825.79 2313.94 C 1827.908 2317.309 1829.272 2321.095 1829.79 2325.04 C 1830.352 2329.81 1827.849 2334.417 1823.54 2336.54 C 1818.93 2339.05 1814.01 2338.85 1810.54 2335.54 C 1806.8 2332 1804.08 2327.26 1801.37 2322.76 C 1789.82 2303.54 1773.95 2288.65 1754.96 2277.13 C 1736.43 2265.88 1716.37 2259.69 1694.37 2260.93 C 1690.67 2261.16 1686.89 2260.52 1680.18 2260.08 Z"/>
  <path class="cls-5" d="M 3547.48 2289.21 C 3550.41 2289.78 3553.02 2290.21 3555.6 2290.82 C 3563.66 2292.67 3568.25 2297.93 3569.6 2305.89 C 3570.79 2313.08 3566.79 2320.21 3559.6 2323.78 C 3555.994 2325.488 3552.242 2326.87 3548.39 2327.91 C 3525.6 2334.56 3506.1 2346.85 3488.55 2362.53 C 3487.55 2363.42 3486.71 2364.47 3485.7 2365.33 C 3480.64 2369.67 3476.16 2370.78 3473.29 2368.21 C 3469.41 2364.75 3468.55 2360.21 3470.03 2355.5 C 3471.82 2349.83 3473.72 2344.05 3476.57 2338.88 C 3489.05 2316.29 3508.68 2302 3532.2 2292.69 C 3537.03 2290.76 3542.49 2290.3 3547.48 2289.21 Z"/>
  <path class="cls-5" d="M 3336.13 3406.5 C 3337.57 3382.5 3341.2 3358.85 3348.32 3335.87 C 3351.7 3324.99 3357.17 3315.04 3365.85 3307.22 C 3373.35 3300.48 3382.02 3297.99 3391.71 3300.86 C 3394.149 3301.77 3396.05 3303.727 3396.89 3306.19 C 3397.38 3308.19 3396.09 3312.13 3394.47 3312.9 C 3377.09 3321.11 3372.28 3336.78 3370.1 3353.73 C 3367.89 3370.87 3366.48 3388.13 3364.79 3405.34 C 3364.27 3410.64 3364.43 3416.04 3363.47 3421.25 C 3362.183 3427.327 3356.982 3431.786 3350.78 3432.13 C 3345.05 3432.4 3339.3 3428.31 3337.13 3422.34 C 3336.598 3421.113 3336.261 3419.811 3336.13 3418.48 C 3336.06 3414.49 3336.13 3410.5 3336.13 3406.5 Z"/>
  <path class="cls-5" d="M 1376.66 2212.95 C 1385.27 2213.53 1394.82 2216.09 1402.47 2223.27 C 1404.81 2225.48 1407.19 2228.33 1408 2231.27 C 1408.81 2234.21 1408.54 2238.27 1406.87 2240.44 C 1405.2 2242.61 1401.26 2243.34 1398.28 2243.44 C 1395.87 2243.5 1393.28 2241.8 1390.97 2240.56 C 1379.72 2234.56 1368.97 2237.33 1358.43 2242.4 C 1344.19 2249.25 1333.71 2260.25 1325.11 2273.23 C 1322.18 2277.67 1319.74 2282.48 1316.44 2286.61 C 1313.009 2290.952 1306.976 2292.241 1302.07 2289.68 C 1296.425 2287 1293.612 2280.576 1295.47 2274.61 C 1295.984 2272.684 1296.73 2270.827 1297.69 2269.08 C 1309.3 2248.26 1324.78 2231.16 1346.26 2220.21 C 1355.639 2215.319 1366.083 2212.825 1376.66 2212.95 Z"/>
  <path class="cls-20" d="M 1987.31 1142.83 C 1988.1 1140.1 1988.01 1136.39 1989.82 1134.7 C 2025 1101.81 2081.69 1111.7 2103.03 1154.49 C 2106.435 1161.681 2109.076 1169.208 2110.91 1176.95 C 2112.48 1183.08 2108.04 1188.95 2102 1190.54 C 2097.39 1191.75 2091.56 1188.77 2089.16 1183.43 C 2087.28 1179.21 2086.43 1174.52 2084.42 1170.43 C 2081.26 1163.9 2078.25 1157.09 2073.85 1151.43 C 2066.18 1141.6 2055.75 1136.22 2042.97 1135.61 C 2031.006 1135.096 2019.05 1136.791 2007.7 1140.61 C 2002.661 1142.159 1997.544 1143.445 1992.37 1144.46 C 1991.27 1144.61 1989.92 1143.67 1987.31 1142.83 Z"/>
  <path class="cls-20" d="M 1680.41 1238.87 C 1681.97 1212.53 1689.24 1189.53 1707.64 1171.19 C 1720.09 1158.77 1734.99 1152.09 1752.77 1156.05 C 1758.96 1157.43 1764.91 1161.05 1770.3 1164.61 C 1774.64 1167.49 1775.3 1173.01 1773.44 1177.08 C 1770.97 1182.34 1765.96 1185.01 1760.39 1183.74 C 1758.49 1183.3 1756.76 1182.19 1754.92 1181.47 C 1740.47 1175.78 1729.01 1180.64 1719.45 1191.71 C 1709.75 1202.95 1703.64 1216.13 1699.04 1230.13 C 1696.77 1237.04 1694.29 1243.9 1691.46 1250.6 C 1690.9 1251.93 1688.23 1253.21 1686.69 1253.04 C 1685.15 1252.87 1683.27 1251.04 1682.77 1249.5 C 1681.773 1246.007 1680.985 1242.457 1680.41 1238.87 Z"/>
  <path class="cls-13" d="M 1295.77 3376.07 C 1294.06 3402.27 1300.26 3426.27 1315.13 3448.02 C 1317.014 3450.746 1318.559 3453.691 1319.73 3456.79 C 1321.79 3462.34 1319.94 3468.5 1315.73 3471.05 C 1310.73 3474.05 1305.25 3474.05 1300.73 3470.64 C 1297.086 3467.753 1293.964 3464.262 1291.5 3460.32 C 1279.56 3442.02 1273.2 3421.84 1273.5 3399.97 C 1273.71 3385.29 1275.67 3370.69 1281.1 3356.9 C 1282.48 3353.38 1285.26 3350.28 1287.89 3347.43 C 1290.11 3345.03 1295.58 3346.96 1295.68 3350.18 C 1295.95 3358.8 1295.77 3367.44 1295.77 3376.07 Z"/>
  <path class="cls-20" d="M 755.32 1272.94 C 770.06 1274.18 784.5 1278.53 794.83 1291.42 C 797.21 1294.42 798.6 1298.34 799.73 1302.06 C 800.18 1303.53 799.19 1306.18 797.96 1307.23 C 796.381 1308.344 794.392 1308.709 792.52 1308.23 C 790.073 1307.285 787.817 1305.906 785.86 1304.16 C 769.29 1290.55 751.51 1291.83 733.44 1300.21 C 721.822 1305.537 712.408 1314.725 706.8 1326.21 C 705.02 1329.76 703.8 1333.62 701.9 1337.09 C 699.453 1341.198 694.589 1343.198 689.96 1342 C 684.53 1340.41 681.65 1335.66 682.53 1329.55 C 682.786 1327.563 683.252 1325.609 683.92 1323.72 C 696.71 1289.94 727.18 1274.3 755.32 1272.94 Z"/>
  <path class="cls-13" d="M 1932.37 3444.66 C 1929.66 3469.87 1919.88 3491.98 1902.18 3510.25 C 1895.47 3517.18 1887.3 3517.25 1880.59 3511.99 C 1874.42 3507.11 1872.83 3498.15 1877.09 3490.35 C 1878.703 3487.432 1880.697 3484.742 1883.02 3482.35 C 1896.25 3468.69 1904.4 3452.11 1910.88 3434.53 C 1911.708 3432.032 1912.748 3429.61 1913.99 3427.29 C 1916.36 3423.21 1922.8 3422.72 1926.08 3426.19 C 1930.96 3431.38 1932.64 3437.62 1932.37 3444.66 Z"/>
  <path class="cls-5" d="M 564.72 2123.74 C 572.86 2123.2 580.12 2126.11 586.63 2131.02 C 603.49 2143.7 613.53 2161.66 623.36 2179.63 C 624.54 2181.79 623.14 2186.02 621.82 2188.74 C 619.98 2192.53 614.29 2193.3 611.65 2190.5 C 609.39 2188.11 607.6 2185.29 605.48 2182.77 C 601.65 2178.22 597.97 2173.51 593.79 2169.3 C 582.29 2157.71 569.53 2150.83 553.04 2159.57 C 551.206 2160.334 549.246 2160.754 547.26 2160.81 C 539.514 2161.811 532.816 2155.414 533.46 2147.63 C 533.84 2140.76 536.51 2134.83 542.25 2130.63 C 548.685 2125.74 556.65 2123.298 564.72 2123.74 Z"/>
  <path class="cls-13" d="M 3897.15 2262.68 C 3907.998 2262.588 3918.563 2266.141 3927.15 2272.77 C 3939.2 2281.77 3946.99 2293.94 3951.59 2308.13 C 3952.38 2310.55 3952.2 2313.34 3952.13 2315.95 C 3952.04 2318.89 3947.84 2321.82 3944.84 2321.12 C 3942.883 2320.823 3940.994 2320.183 3939.26 2319.23 C 3923.21 2308.56 3905.83 2300.6 3887.99 2293.47 C 3878.99 2289.89 3874.89 2283.56 3876.51 2277.18 C 3878.51 2269.35 3883.72 2264.78 3891.69 2263.4 C 3893.67 2263.06 3895.65 2262.88 3897.15 2262.68 Z"/>
  <path class="cls-20" d="M 685.38 3384.92 C 683.3 3395.7 681.51 3406.13 679.17 3416.43 C 678.149 3420.294 676.594 3423.996 674.55 3427.43 C 670.96 3433.92 665.07 3436.15 659.73 3433.43 C 654.73 3430.92 652.73 3426.43 654.12 3420.05 C 654.693 3417.456 655.441 3414.903 656.36 3412.41 C 665 3388.48 665.2 3364.41 657.88 3340.13 C 657.32 3338.25 656.42 3336.27 656.58 3334.42 C 656.74 3332.57 657.67 3330.42 659.01 3329.58 C 660.723 3328.683 662.742 3328.577 664.54 3329.29 C 673 3333.45 676.86 3341.53 678.99 3349.82 C 681.95 3361.29 683.32 3373.16 685.38 3384.92 Z"/>
  <path class="cls-20" d="M 2411.62 3355.21 C 2411.349 3344.515 2413.821 3333.929 2418.8 3324.46 C 2420.27 3321.56 2422.22 3318.46 2424.8 3316.7 C 2427.448 3315.015 2430.626 3314.374 2433.72 3314.9 C 2435.52 3315.31 2437.38 3318.79 2437.8 3321.15 C 2438.37 3324.31 2437.8 3327.75 2437.32 3331.02 C 2434.89 3348.2 2436.59 3364.02 2449.66 3377.29 C 2454.35 3382.04 2453.73 3389.51 2450.11 3393.78 C 2446.49 3398.05 2439.23 3399.9 2433.76 3397 C 2429.681 3394.883 2426.032 3392.024 2423 3388.57 C 2415.92 3380.16 2411.76 3366.94 2411.62 3355.21 Z"/>
  <path class="cls-20" d="M 3699.43 3361.68 C 3709.57 3353.41 3714.97 3352.12 3721.63 3357.82 C 3728.07 3363.33 3734.33 3369.82 3738.51 3377.06 C 3748.23 3394.06 3751.61 3413.01 3752.29 3432.4 C 3752.663 3437.921 3748.757 3442.812 3743.29 3443.67 C 3739.19 3444.25 3733.65 3441.53 3732 3437.19 C 3730.228 3432.208 3728.831 3427.1 3727.82 3421.91 C 3726.57 3416.09 3725.65 3410.2 3724.71 3404.31 C 3721.98 3387.41 3715.56 3372.56 3699.43 3361.68 Z"/>
  <path class="cls-20" d="M 60.73 3337.82 C 60.14 3342.38 59.83 3347 58.92 3351.5 C 53.08 3380.05 58.08 3407.03 70.49 3432.95 C 74.79 3441.95 79.49 3450.73 83.49 3459.86 C 84.3 3461.72 83.39 3465.58 81.86 3466.94 C 79.05 3469.43 75.69 3467.94 73.14 3465.44 C 72.207 3464.483 71.401 3463.411 70.74 3462.25 C 52.46 3431.81 41.89 3399.54 47.21 3363.45 C 48.62 3353.63 51.27 3344.37 60.73 3337.82 Z"/>
  <path class="cls-20" d="M 2884.35 3408.41 C 2884.35 3391.51 2882.81 3377.72 2877.8 3364.41 C 2876.594 3361.352 2875.732 3358.169 2875.23 3354.92 C 2874.69 3351.07 2880.23 3346.85 2883.42 3348.92 C 2887.72 3351.72 2892.35 3354.97 2894.97 3359.19 C 2902.08 3370.59 2905.78 3383.47 2907.27 3396.78 C 2908.127 3404.71 2908.304 3412.699 2907.8 3420.66 C 2907.496 3427.709 2901.254 3433.006 2894.25 3432.16 C 2888.57 3431.4 2884.04 3426.16 2883.87 3419.45 C 2883.75 3414.88 2884.26 3410.22 2884.35 3408.41 Z"/>
  <path class="cls-5" d="M 778.06 4312.39 C 788.15 4319.18 791.46 4327.31 795.5 4334.71 C 800.88 4344.52 805.7 4354.64 810.56 4364.71 C 814.62 4373.14 813.14 4380.96 807.12 4383.85 C 801.49 4386.55 792.49 4386.8 787.63 4375.93 C 780.05 4358.98 774.82 4341.29 774.24 4322.58 C 774.15 4319.79 776.3 4316.91 778.06 4312.39 Z"/>
  <path class="cls-20" d="M 0 3394.73 C 0.862 3391.367 2.055 3388.098 3.56 3384.97 C 4.08 3383.97 8.85 3383.84 10.16 3384.97 C 11.87 3386.49 12.39 3389.64 12.86 3392.19 C 15.79 3408.19 22.46 3422.54 31.5 3435.92 C 33.027 3438.081 34.365 3440.37 35.5 3442.76 C 37.5 3447.34 36.01 3452.9 32.35 3455.23 C 28.187 3457.593 22.963 3456.916 19.54 3453.57 C 19.08 3453.09 18.62 3452.57 18.2 3452.09 C 8.93 3440.51 -0.28 3413.3 0 3394.73 Z"/>
  <path class="cls-20" d="M 2858.31 2341.86 C 2859.5 2336.66 2859.31 2334.28 2860.43 2333.03 C 2877.06 2314.38 2921.81 2312.5 2938.5 2345.43 C 2940.5 2349.31 2940.89 2354.27 2940.86 2358.72 C 2940.86 2360.45 2937.86 2362.72 2935.75 2363.72 C 2934.54 2364.25 2932.01 2362.92 2930.75 2361.72 C 2929.49 2360.52 2928.64 2358.44 2927.82 2356.66 C 2918.17 2335.66 2901.26 2327.73 2879.62 2334.21 C 2873.38 2336.03 2867.39 2338.55 2858.31 2341.86 Z"/>
  <path class="cls-20" d="M 2107.88 4261.16 C 2094.29 4258.29 2080.7 4255.45 2067.13 4252.51 C 2065.873 4252.103 2064.686 4251.506 2063.61 4250.74 C 2060.34 4248.8 2059.79 4242.58 2062.95 4240.54 C 2065.67 4238.79 2068.66 4237.02 2071.76 4236.39 C 2084.27 4233.87 2096.85 4234.53 2109.38 4236.57 C 2110.679 4236.809 2111.95 4237.184 2113.17 4237.69 C 2118.982 4239.804 2122.398 4245.827 2121.23 4251.9 C 2119.84 4258.21 2115.01 4261.56 2107.88 4261.16 Z"/>
  <path class="cls-20" d="M 713.46 3372.04 C 715.27 3372.61 717.84 3372.6 718.69 3373.81 C 726.23 3384.47 725.69 3396.3 722.75 3408.21 C 721.63 3412.74 715.75 3415.44 711.63 3414.01 C 706.98 3412.4 704.81 3408.16 706.07 3402.79 C 708.32 3393.16 710.67 3383.62 713.46 3372.04 Z"/>
  <g style="" transform="matrix(1.023857, -0.089147, 0.038712, 1.209985, -220.789413, -1012.952393)">
    <path d="M 56.75 3833.685 C 56.858 3830.558 59.028 3827.65 62.2 3825.403 C 65.338 3823.181 69.609 3821.275 73.996 3819.713 C 82.763 3816.592 92.328 3814.69 95.576 3813.876 C 126.032 3806.262 164.68 3806.54 196.39 3802.255 C 210.207 3800.396 240.515 3800.726 254.297 3799.854 C 352.72 3793.645 440.57 3800.608 538.809 3806.891 C 600.628 3810.85 662.405 3804.599 724.334 3812.057 C 744.877 3814.548 766.887 3812.173 786.625 3814.151 C 806.384 3816.131 824.021 3822.7 835.407 3842.744 C 841.03 3852.763 861.125 3887.46 859.595 3899.779 C 857.795 3912.983 851.462 3922.926 842.465 3930.257 C 833.479 3937.579 821.701 3942.526 809.082 3946.068 C 783.861 3953.147 754.826 3954.834 735.881 3959.391 C 718.264 3963.622 700.444 3967.489 682.484 3970.091 C 638.125 3976.512 598.243 3980.988 553.665 3984.854 C 518.361 3987.916 478.597 3990.795 443.092 3990.795 C 414.006 3990.795 385.624 3989.316 356.786 3984.966 C 332.055 3981.231 308.143 3974.878 283.721 3969.89 C 267.426 3966.556 250.831 3965.291 234.364 3962.249 C 219.753 3959.545 204.997 3957.746 190.307 3954.901 C 179.669 3952.84 169.14 3950.508 158.647 3947.841 C 139.744 3943.037 108.919 3934.3 84.17 3919.622 C 71.787 3912.278 60.803 3903.35 53.655 3892.712 C 46.498 3882.063 43.118 3869.431 45.755 3854.978 C 46.65 3850.235 48.735 3845.387 51.061 3840.724 C 52.224 3838.393 53.453 3836.085 54.63 3833.828 C 55.218 3832.699 55.792 3831.587 56.342 3830.485 C 56.616 3829.934 56.882 3829.39 57.142 3828.847 C 57.402 3828.303 57.901 3827.214 57.901 3827.214" style="fill: none; stroke-width: 17px;"/>
    <path d="M 48.255 3833.392 C 49.204 3827.87 53.166 3821.639 57.288 3818.466 C 61.15 3815.831 66.452 3813.39 71.145 3811.705 C 80.509 3808.42 90.471 3806.398 93.514 3805.63 C 125.032 3797.889 164.146 3798.078 195.257 3793.831 C 209.687 3791.934 240.294 3792.235 253.762 3791.371 C 352.788 3785.167 441.178 3792.13 539.352 3798.408 C 600.472 3802.38 662.492 3796.152 725.357 3803.619 C 744.933 3806.103 766.855 3803.719 787.473 3805.693 C 808.291 3807.919 829.221 3816.656 842.819 3838.584 C 848.414 3848.553 869.007 3885.954 868.017 3900.927 C 865.591 3915.84 857.731 3928.504 847.834 3936.846 C 837.809 3944.792 824.495 3950.536 811.379 3954.252 C 785.256 3961.482 756.064 3963.21 737.866 3967.656 C 720.158 3971.908 701.954 3975.849 683.702 3978.503 C 639.208 3984.942 599.084 3989.446 554.399 3993.322 C 519.035 3996.389 478.904 3999.295 443.092 3999.295 C 413.785 3999.295 384.767 3997.762 355.517 3993.371 C 330.329 3989.541 306.198 3983.149 282.017 3978.217 C 266.251 3974.957 249.733 3973.707 232.817 3970.607 C 218.465 3967.943 203.674 3966.137 188.69 3963.246 C 177.942 3961.162 167.174 3958.776 156.553 3956.079 C 137.538 3951.245 105.592 3942.044 79.834 3926.933 C 66.938 3919.231 54.595 3909.019 46.6 3897.453 C 38.865 3885.532 34.841 3869.716 37.402 3853.402 C 38.569 3847.768 41.028 3841.81 43.455 3836.929 C 44.67 3834.498 45.932 3832.124 47.092 3829.9 C 47.673 3828.785 48.211 3827.744 48.733 3826.696 C 48.995 3826.17 49.228 3825.693 49.473 3825.182 C 49.704 3824.7 50.232 3823.549 50.232 3823.549 C 50.203 3823.611 65.599 3830.817 65.57 3830.879 C 65.57 3830.879 65.1 3831.906 64.811 3832.512 C 64.536 3833.087 64.239 3833.693 63.953 3834.27 C 63.377 3835.423 62.764 3836.612 62.169 3837.754 C 60.975 3840.044 59.778 3842.288 58.667 3844.519 C 56.442 3848.964 54.739 3852.684 54.112 3856.526 C 51.408 3869.106 54.131 3878.594 60.71 3887.971 C 67.011 3897.681 76.636 3905.325 88.506 3912.311 C 112.246 3926.556 141.95 3934.829 160.741 3939.603 C 171.106 3942.239 181.396 3944.518 191.924 3946.556 C 206.32 3949.355 221.039 3951.147 235.909 3953.891 C 251.926 3956.874 268.601 3958.155 285.425 3961.562 C 310.086 3966.607 333.781 3972.921 358.055 3976.561 C 386.481 3980.869 414.227 3982.295 443.092 3982.295 C 478.29 3982.295 517.687 3979.443 552.931 3976.386 C 597.402 3972.53 637.042 3968.082 681.266 3961.679 C 698.934 3959.129 716.37 3955.336 733.896 3951.126 C 753.588 3946.458 782.466 3944.812 806.785 3937.884 C 818.907 3934.516 829.149 3930.366 837.096 3923.667 C 845.193 3917.348 849.992 3910.201 851.165 3898.706 C 853.196 3889.01 833.646 3856.973 827.995 3846.904 C 818.821 3828.744 804.477 3824.343 785.777 3822.609 C 766.919 3820.627 744.822 3822.992 723.312 3820.495 C 662.321 3813.047 600.784 3819.32 538.266 3815.374 C 439.962 3809.086 352.653 3802.123 254.833 3808.337 C 240.736 3809.217 210.729 3808.858 197.525 3810.679 C 165.216 3815.002 127.033 3814.635 97.639 3822.122 C 94.183 3822.982 85.017 3824.764 76.847 3827.721 C 72.766 3829.16 69.527 3830.53 67.113 3832.339 C 64.891 3833.66 64.512 3833.246 65.245 3833.978 Z" style=""/>
    <path d="M 59.708 3865.777 C 123.932 3865.777 186.968 3868.729 250.857 3872.365 C 311.534 3875.818 399.838 3882.829 460.485 3886.728 C 508.923 3889.842 529.91 3883.921 578.416 3886.913 C 669.344 3892.523 763.797 3886.907 854.54 3886.907" style="fill: none; stroke-width: 17px;"/>
    <path d="M 854.54 3895.407 C 764.049 3895.4 669.335 3901.007 577.893 3895.397 C 530.802 3892.253 509.804 3898.174 459.94 3895.21 C 399.229 3891.307 310.956 3884.298 250.374 3880.851 C 218.451 3879.034 186.802 3877.392 155.089 3876.202 C 139.233 3875.606 123.407 3875.126 107.507 3874.793 C 99.558 3874.627 91.62 3874.498 83.647 3874.41 C 75.674 3874.323 59.615 3874.276 59.615 3874.276 C 59.637 3874.277 59.779 3857.277 59.801 3857.278 C 59.801 3857.278 75.817 3857.323 83.834 3857.411 C 91.851 3857.5 99.873 3857.63 107.863 3857.797 C 123.842 3858.131 139.81 3858.616 155.727 3859.213 C 187.561 3860.408 219.374 3862.06 251.34 3863.879 C 312.112 3867.338 400.447 3874.351 461.03 3878.246 C 508.042 3881.51 529.018 3875.589 578.939 3878.429 C 669.353 3884.039 763.545 3878.415 854.54 3878.407 Z" style=""/>
    <path d="M 198.883 3807.196 C 198.883 3841.895 194.181 3875.468 194.181 3909.681 C 194.181 3916.014 196.078 3941.432 191.804 3945.805" style="fill: none; stroke-width: 17px;"/>
    <path d="M 207.383 3807.196 C 207.342 3842.484 202.681 3876.057 202.681 3909.681 C 202.681 3912.594 203.157 3920.565 203.095 3928.544 C 203.033 3936.542 200.304 3945.871 200.304 3945.871 C 200.29 3946.176 183.318 3945.434 183.304 3945.739 C 183.304 3945.739 186.038 3935.799 186.096 3928.412 C 186.153 3921.005 185.681 3913.101 185.681 3909.681 C 185.681 3874.879 190.424 3841.306 190.383 3807.196 Z" style=""/>
    <path d="M 314.828 3804.081 C 314.828 3860.875 313.679 3918.51 313.679 3974.09" style="fill: none; stroke-width: 17px;"/>
    <path d="M 323.328 3804.081 C 323.328 3832.521 323.04 3861.171 322.753 3889.627 C 322.609 3903.854 322.466 3918.034 322.358 3932.13 C 322.304 3939.178 322.26 3946.197 322.228 3953.195 C 322.197 3960.193 322.179 3974.128 322.179 3974.128 C 322.179 3974.12 305.179 3974.06 305.179 3974.052 C 305.179 3974.052 305.197 3960.133 305.228 3953.119 C 305.26 3946.105 305.305 3939.059 305.359 3932 C 305.467 3917.883 305.61 3903.683 305.754 3889.455 C 306.041 3861 306.328 3832.435 306.328 3804.081 Z" style=""/>
    <path d="M 466.372 3804.081 C 466.372 3864.405 463.61 3923.473 463.61 3983.208" style="fill: none; stroke-width: 17px;"/>
    <path d="M 474.872 3804.081 C 474.871 3834.341 474.179 3864.288 473.489 3894.062 C 473.143 3908.95 472.799 3923.794 472.54 3938.65 C 472.411 3946.078 472.304 3953.49 472.228 3960.921 C 472.153 3968.352 472.11 3983.294 472.11 3983.294 C 472.11 3983.276 455.11 3983.14 455.11 3983.122 C 455.11 3983.122 455.153 3968.217 455.229 3960.749 C 455.305 3953.28 455.413 3945.806 455.543 3938.354 C 455.802 3923.449 456.148 3908.555 456.493 3893.668 C 457.184 3863.894 457.873 3834.145 457.872 3804.081 Z" style=""/>
    <path d="M 610.207 3807.196 C 610.207 3847.236 616.668 3881.477 622.325 3920.533 C 624.711 3937.004 618.621 3952.87 618.621 3968.958" style="fill: none; stroke-width: 17px;"/>
    <path d="M 618.707 3807.196 C 618.633 3846.448 625.05 3880.08 630.737 3919.314 C 631.946 3928.643 631.019 3937.977 629.771 3946.169 C 629.147 3950.265 628.474 3954.193 627.961 3958.043 C 627.448 3961.891 627.047 3970.08 627.047 3970.08 C 627.065 3969.921 610.245 3967.522 610.218 3967.678 C 610.218 3967.678 611.764 3951.489 612.965 3943.609 C 614.165 3935.729 615.09 3928.894 613.913 3921.752 C 608.286 3882.874 601.781 3848.024 601.707 3807.196 Z" style=""/>
    <path d="M 754.955 3945.805 C 752.463 3902.248 752.463 3858.69 752.463 3815.133" style="fill: none; stroke-width: 17px;" transform="matrix(-1, 0, 0, -1, 1507.41803, 7760.937988)"/>
    <path d="M 746.469 3946.291 C 745.218 3924.391 744.588 3902.43 744.275 3880.591 C 744.119 3869.671 744.041 3858.736 744.002 3847.831 C 743.982 3842.379 743.973 3836.923 743.968 3831.475 C 743.963 3826.026 743.963 3815.141 743.963 3815.141 C 743.963 3815.137 760.963 3815.129 760.963 3815.125 C 760.963 3815.125 760.963 3826.018 760.968 3831.459 C 760.973 3836.9 760.982 3842.333 761.002 3847.771 C 761.041 3858.645 761.118 3869.488 761.274 3880.347 C 761.584 3902.065 762.2 3923.662 763.441 3945.319 Z" style="" transform="matrix(-1, 0, 0, -1, 1507.41803, 7760.937988)"/>
  </g>
</svg>