<?xml version="1.0" encoding="utf-8"?>
<svg viewBox="0 0 500 500" xmlns="http://www.w3.org/2000/svg">
  <path d="M 181.808 20.68 L 216.693 20.68 L 251.578 20.68 L 286.462 20.68 L 321.346 20.68 C 322.233 20.68 323.077 20.859 323.844 21.184 C 324.612 21.509 325.303 21.979 325.884 22.559 C 326.464 23.14 326.934 23.831 327.258 24.599 C 327.583 25.367 327.763 26.211 327.763 27.097 L 327.763 54.304 L 327.763 81.51 L 327.763 108.716 L 327.763 135.922 C 327.763 136.808 327.583 137.652 327.258 138.419 C 326.933 139.187 326.464 139.879 325.884 140.46 C 325.303 141.039 324.612 141.51 323.844 141.834 C 323.077 142.159 322.233 142.339 321.346 142.339 L 286.462 142.339 L 251.578 142.339 L 216.693 142.339 L 181.808 142.339 C 180.923 142.339 180.079 142.159 179.311 141.834 C 178.543 141.509 177.852 141.039 177.271 140.46 C 176.69 139.879 176.22 139.187 175.896 138.419 C 175.571 137.652 175.392 136.808 175.392 135.922 L 175.392 108.716 L 175.392 81.51 L 175.392 54.304 L 175.392 27.097 C 175.392 26.211 175.571 25.367 175.896 24.599 C 176.22 23.831 176.69 23.14 177.271 22.559 C 177.852 21.979 178.543 21.509 179.311 21.184 C 180.079 20.859 180.922 20.68 181.808 20.68 Z" style="fill: rgb(216, 216, 216);"/>
  <path d="M 90.163 189.418 L 125.048 189.418 L 159.932 189.418 L 194.817 189.418 L 229.701 189.418 C 230.587 189.418 231.431 189.597 232.198 189.922 C 232.966 190.247 233.658 190.717 234.238 191.297 C 234.818 191.878 235.289 192.569 235.613 193.337 C 235.938 194.105 236.117 194.949 236.117 195.835 L 236.117 223.041 L 236.117 250.248 L 236.117 277.454 L 236.117 304.66 C 236.117 305.546 235.938 306.39 235.613 307.157 C 235.288 307.925 234.818 308.617 234.238 309.197 C 233.658 309.777 232.966 310.248 232.198 310.572 C 231.431 310.897 207.259 311.076 206.372 311.076 L 179.942 348.937 L 187.718 311.076 L 125.048 311.076 L 90.163 311.076 C 89.277 311.076 88.433 310.897 87.665 310.572 C 86.898 310.247 86.206 309.777 85.625 309.197 C 85.045 308.617 84.575 307.925 84.251 307.157 C 83.926 306.39 83.746 305.546 83.746 304.66 L 83.746 277.454 L 83.746 250.248 L 83.746 223.041 L 83.746 195.835 C 83.746 194.949 83.926 194.105 84.251 193.337 C 84.575 192.569 85.045 191.878 85.625 191.297 C 86.206 190.717 86.898 190.247 87.665 189.922 C 88.433 189.597 89.277 189.418 90.163 189.418 Z" style="fill: rgb(216, 216, 216);"/>
  <path d="M 269.659 358.937 L 304.544 358.937 L 339.429 358.937 L 374.313 358.937 L 409.197 358.937 C 410.084 358.937 410.928 359.116 411.695 359.441 C 412.463 359.765 413.154 360.236 413.735 360.816 C 414.315 361.396 414.785 362.088 415.109 362.856 C 415.434 363.623 415.614 364.468 415.614 365.353 L 415.614 392.56 L 415.614 419.766 L 442.457 465.659 L 415.614 451.748 C 415.614 452.634 415.434 475.909 415.109 476.676 C 414.784 477.444 414.315 478.135 413.735 478.716 C 413.154 479.296 412.463 479.767 411.695 480.091 C 410.928 480.416 410.084 480.595 409.197 480.595 L 374.313 480.595 L 339.429 480.595 L 304.544 480.595 L 269.659 480.595 C 268.774 480.595 267.93 480.416 267.162 480.091 C 266.394 479.766 265.703 479.296 265.122 478.716 C 264.541 478.135 264.071 477.444 263.747 476.676 C 263.422 475.909 263.243 475.065 263.243 474.178 L 263.243 446.972 L 263.243 419.766 L 263.243 392.56 L 263.243 365.353 C 263.243 364.468 263.422 363.623 263.747 362.856 C 264.071 362.088 264.541 361.396 265.122 360.816 C 265.703 360.236 266.394 359.766 267.162 359.441 C 267.93 359.116 268.773 358.937 269.659 358.937 Z" style="fill: rgb(216, 216, 216);"/>
  <path d="M 269.659 348.937 L 304.544 348.937 L 339.429 348.937 L 374.313 348.937 L 409.197 348.937 C 410.084 348.937 410.928 348.757 411.695 348.432 C 412.463 348.108 413.154 347.637 413.735 347.057 C 414.315 346.477 414.785 345.785 415.11 345.017 C 415.434 344.25 415.614 343.406 415.614 342.52 L 415.614 315.313 L 415.614 288.107 L 415.614 260.901 L 415.614 233.695 C 415.614 232.808 415.434 231.964 415.11 231.197 C 414.785 230.429 414.315 229.738 413.735 229.157 C 413.154 228.577 412.463 228.107 411.695 227.782 C 410.928 227.457 386.755 227.278 385.869 227.278 L 359.438 189.418 L 367.214 227.278 L 304.544 227.278 L 269.659 227.278 C 268.774 227.278 267.93 227.457 267.162 227.782 C 266.394 228.107 265.703 228.577 265.122 229.157 C 264.541 229.738 264.071 230.429 263.747 231.197 C 263.422 231.964 263.243 232.808 263.243 233.695 L 263.243 260.901 L 263.243 288.107 L 263.243 315.313 L 263.243 342.52 C 263.243 343.406 263.422 344.25 263.747 345.017 C 264.071 345.785 264.541 346.477 265.122 347.057 C 265.703 347.637 266.394 348.107 267.162 348.432 C 267.93 348.757 268.773 348.937 269.659 348.937 Z" style="fill: rgb(216, 216, 216);" transform="matrix(-1, 0, 0, -1, 678.857025, 538.355011)"/>
  <path d="M 63.32 480.595 L 98.205 480.595 L 133.089 480.595 L 167.973 480.595 L 202.857 480.595 C 203.744 480.595 204.588 480.416 205.355 480.091 C 206.123 479.767 206.814 479.296 207.395 478.716 C 207.975 478.135 208.445 477.444 208.77 476.676 C 209.095 475.908 209.274 475.064 209.274 474.179 L 209.274 446.972 L 209.274 419.765 L 236.117 373.872 L 209.274 387.784 C 209.274 386.897 209.095 363.623 208.77 362.856 C 208.445 362.088 207.975 361.396 207.395 360.816 C 206.814 360.236 206.123 359.765 205.355 359.441 C 204.588 359.116 203.744 358.937 202.857 358.937 L 167.973 358.937 L 133.089 358.937 L 98.205 358.937 L 63.32 358.937 C 62.434 358.937 61.59 359.116 60.822 359.441 C 60.054 359.766 59.363 360.236 58.782 360.816 C 58.201 361.396 57.732 362.088 57.407 362.856 C 57.082 363.623 56.903 364.467 56.903 365.353 L 56.903 392.559 L 56.903 419.765 L 56.903 446.972 L 56.903 474.179 C 56.903 475.064 57.082 475.908 57.407 476.676 C 57.732 477.444 58.201 478.135 58.782 478.716 C 59.363 479.296 60.054 479.766 60.822 480.091 C 61.59 480.416 62.433 480.595 63.32 480.595 Z" style="fill: rgb(216, 216, 216);" transform="matrix(-1, 0, 0, -1, 293.020004, 839.532013)"/>
</svg>