<?xml version="1.0" encoding="utf-8"?>
<svg width="1000" height="1000" viewBox="0 0 1000 1000" xmlns="http://www.w3.org/2000/svg">
  <path d="M50 50L250 700L450 50M125 250L375 250" stroke="red" fill="pink"/>
  <path d="M 77.411 615.646 C 115.156 699.281 263.097 731.869 333.702 661.627 C 409.299 586.42 469.252 460.555 444.23 293.946 C 410.343 68.308 240.277 22.334 166.156 63.605 C 40.409 133.62 119.423 295.337 254.836 325.249 C 308.272 337.053 419.083 341.594 419.083 329.916" style="stroke: rgb(0, 0, 0); fill: rgb(216, 216, 216);"/>
  <path d="M 229.241 700 C 206.311 599.927 86.478 153.834 143.156 59.502 C 181.124 -3.689 290.461 65.807 364.114 68.959" style="stroke: rgb(0, 0, 0); fill: rgb(216, 216, 216);"/>
  <path d="M 119.233 406.502 C 181.989 408.412 244.745 410.321 307.501 412.231" style="stroke: rgb(0, 0, 0); fill: rgb(216, 216, 216);"/>
  <path d="M 70 -86.899 C 112.051 -18.55 213.585 60.994 243.764 263.575 C 248.38 294.563 276.08 530.854 278.066 556.338" style="stroke: rgb(0, 0, 0); fill: rgb(216, 216, 216);"/>
  <path d="M 213.077 297.221 C 213.077 271.027 321.528 237.267 347.99 235.522 C 451.491 228.694 450 512.977 450 526.338" style="stroke: rgb(0, 0, 0); fill: rgb(216, 216, 216);"/>
  <path d="M 142.877 624.998 C 178.517 715.679 316.583 700.069 335.811 697.175 C 460.364 678.43 478.169 544.874 307.501 342.524 C 183.445 195.437 43.954 74.963 108.666 52.393 C 124.102 47.011 440.744 52.393 470.001 52.393" style="stroke: rgb(0, 0, 0); fill: rgb(216, 216, 216);"/>
  <path d="M 110.089 409.258 C 101.312 270.994 106.648 63.469 270.02 50.346 C 379.823 41.526 452.821 202.658 455.336 373.281 C 458.432 583.302 394.191 700 267.322 700 C 190.29 700 155.87 611.921 140.074 530.088" style="stroke: rgb(0, 0, 0); fill: rgb(216, 216, 216);"/>
  <path d="M 77.411 262.539 C 233.995 340.05 347.188 340.05 494.068 477.722" style="stroke: rgb(0, 0, 0); fill: rgb(216, 216, 216);"/>
  <path d="M 90.428 678.46 C 179.623 681.981 266.522 699.404 356.807 693.459 C 393.57 691.038 436.059 678.681 470.001 678.681" style="stroke: rgb(0, 0, 0); fill: rgb(216, 216, 216);"/>
  <path d="M 373.216 687.069 C 365.164 559.42 333.158 433.726 325.363 305.866 C 321.054 235.187 334.238 123.488 269.846 73.531 C 179.647 3.553 74.689 103.639 58.163 191.053 C 54.752 209.093 73.915 293.357 101.797 293.357" style="stroke: rgb(0, 0, 0); fill: rgb(216, 216, 216);"/>
  <path d="M 96.329 231.93 C 168.396 249.522 237.086 255.366 311.274 255.366 C 341.884 255.366 372.494 255.366 403.104 255.366 C 405.956 255.366 426.528 255.113 426.528 257.758" style="stroke: rgb(0, 0, 0); fill: rgb(216, 216, 216);"/>
  <path d="M 84.127 357.952 C 201.438 410.927 324.631 406.406 450.001 406.406" style="stroke: rgb(0, 0, 0); fill: rgb(216, 216, 216);"/>
</svg>