<?xml version="1.0" encoding="utf-8"?>
<svg viewBox="0 0 1000 1000" xmlns="http://www.w3.org/2000/svg" xmlns:bx="https://boxy-svg.com">
  <path d="82 732Q82 739 95 752H251Q415 752 426 750Q539 736 615 657Q667 599 689 517Q692 496 692 461T689 406Q668 325 615 266Q522 170 382 170H355L326 95Q319 80 311 59T298 28T293 17Q293 15 486 15H680Q693 0 693 -6T680 -25H275L213 -179L449 -181H682Q693 -192 693 -199T680 -221H198L178 -270Q153 -333 139 -333Q132 -333 126 -327T119 -314T135 -266T153 -223Q153 -221 124 -221H95Q82 -207 82 -201T95 -181H171L233 -25H162L93 -23L86 -19Q82 -14 82 -7T95 15H251L313 170H202L93 172L86 177Q82 182 82 190Q82 199 93 210H211L329 212L349 261Q366 301 372 311T386 321Q392 321 399 315T407 302Q407 295 390 254T373 210Q374 209 377 209Q412 209 444 217Q512 231 564 273T638 377Q651 414 651 461Q651 509 638 548Q613 613 555 656T422 710Q411 712 249 712H95Q82 727 82 732" stroke='red' fill='pink' />
</svg>