<?xml version="1.0" encoding="utf-8"?>
<svg version="1.0" id="Layer_1" x="0px" y="0px" width="1310.949px" height="1615.5px" viewBox="0 0 1310.949 1615.5" enable-background="new 0 0 1310.949 1615.5" xmlns="http://www.w3.org/2000/svg">
  <path fill="#FFFFCC" stroke="#2C689A" d="M 552.871 616.573 C 553.374 611.286 554.455 605.971 554.796 600.684 C 555.009 597.389 555.227 594.133 555.154 590.829 C 555.108 588.936 555.069 588.761 556.326 587.36 C 557.311 586.263 557.897 585.347 558.594 584.04 C 560.256 580.924 560.711 578.423 560.874 574.934 C 561.022 571.813 560.295 568.867 559.909 565.77 C 559.741 564.421 558.568 563.539 560.082 562.975 C 560.718 562.738 563.406 561.596 563.793 562.125 C 565.418 564.35 568.458 564.833 571.044 565.514 C 569.054 562.657 572.608 562.895 573.254 560.635 C 573.524 559.691 573.22 558.478 572.168 557.957 C 570.396 557.074 568.95 558.761 568.347 560.16 C 567.459 562.216 566.967 560.954 566.987 559.498 C 567.008 557.746 567.58 557.188 568.658 555.905 C 569.43 554.984 570.333 554.615 571.403 554.053 C 571.847 553.82 571.861 553.1 572.231 552.791 C 572.613 552.472 573.326 552.321 573.787 552.125 C 573.349 551.313 572.754 550.843 573.293 550.054 C 573.781 549.344 573.654 548.68 573.664 547.821 C 571.712 547.902 570.408 547.948 568.632 548.728 C 568.173 548.931 568.105 550.771 568.015 551.237 C 567.776 552.468 567.624 552.697 566.712 553.588 C 566.73 552.011 567.531 547.25 566.752 545.929 C 566.034 544.708 564.75 543.17 565.073 541.695 C 565.432 540.043 565.681 538.824 566.736 537.538 C 568.797 535.026 570.929 534.881 574.045 534.922 C 575.629 534.939 576.128 534.913 577.031 533.696 C 577.85 532.589 578.639 531.498 579.382 530.34 C 578.364 530.81 577.083 531.175 576.171 531.822 C 574.898 532.725 575.145 533.23 573.436 533.123 C 571.446 532.999 571.386 533.024 570.351 531.291 C 569.589 530.022 569.362 528.685 568.926 527.283 C 568.135 524.742 567.48 522.198 566.846 519.608 C 566.315 517.435 566.597 515.084 566.156 512.893 C 565.578 510.028 565.219 508.175 563.65 505.758 C 563.054 504.841 561.734 503.493 561.486 502.42 C 561.366 501.907 561.599 499.561 561.98 499.227 C 562.932 498.403 563.88 497.575 564.825 496.748 C 565.423 496.22 566.649 497.486 567.573 497.616 C 568.675 497.77 569.21 498.181 569.878 497.333 C 570.478 496.568 572.02 494.144 572.588 494.471 C 572.196 493.818 571.693 492.263 570.897 492.184 C 569.692 492.064 568.491 491.945 567.289 491.826 C 567.699 491.028 568.111 490.229 568.521 489.432 C 567.434 490.333 566.292 491.663 565.045 492.315 C 564.337 492.683 563.378 492.818 562.614 493.049 C 561.521 493.38 561.677 493.154 561.111 492.148 C 559.648 489.547 558.06 487.013 556.705 484.353 C 553.566 478.178 550.721 471.806 549.027 465.103 C 550.685 465.232 552.607 467.845 553.782 469.15 C 554.654 470.121 555.215 471.338 556.142 472.232 C 556.884 472.948 557.93 473.501 558.442 474.403 C 558.97 475.33 559.385 476.064 559.647 477.089 C 560.078 478.793 560.634 479.26 561.913 480.575 C 562.724 481.407 561.57 476.098 561.366 475.525 C 560.683 473.597 562.802 472.421 564.107 471.022 C 565.504 469.523 566.391 468.502 568.43 468.437 C 569.702 468.396 570.191 468.458 570.942 467.483 C 571.923 466.206 571.965 466.242 573.592 466.264 C 574.596 466.276 575.618 466.463 576.618 466.57 C 577.736 466.69 578.347 466.065 579.304 465.473 C 578.159 465.4 577.01 465.329 575.866 465.257 C 575.873 465.274 576.003 465.276 576.019 465.266 C 575.212 465.791 568.133 463.035 571.771 462.455 C 570.604 460.538 570.989 461.757 569.237 461.735 C 567.601 461.716 566.495 461.592 565.78 459.8 C 565.227 458.421 566.121 457.426 566.785 456.314 C 567.181 455.652 570.064 456.195 570.64 456.246 C 570.271 453.853 570.199 454.169 567.773 454.018 C 566.188 453.919 564.602 453.935 563.019 453.915 C 560.086 453.879 557.734 456.09 555.764 458.015 C 554.231 459.509 549.871 462.434 547.638 461.058 C 545.728 459.88 545.5 459.827 545.029 457.687 C 544.693 456.158 544.368 454.655 543.909 453.16 C 541.963 446.871 540.05 440.961 536.784 435.227 C 533.878 430.133 531.279 424.507 527.707 419.847 C 526.565 418.356 522.964 414.947 522.764 413.048 C 522.499 410.538 521.865 407.164 524.626 405.784 C 524.603 407.772 524.715 409.699 525.762 411.477 C 526.005 410.108 526.784 405.023 528.908 407.473 C 530.144 408.896 530.332 410.922 531.254 412.577 C 531.699 413.375 532.442 413.911 532.431 414.848 C 532.406 416.886 532.365 415.793 533.788 416.395 C 536.297 417.455 536.679 419.171 536.65 421.591 C 537.008 421.438 537.485 421.56 537.857 421.434 C 537.852 421.851 537.604 423.451 538.011 423.537 C 538.968 423.74 539.495 423.825 540.248 424.416 C 541.593 425.477 542.954 426.507 544.319 427.536 C 543.844 426.454 542.487 425.101 542.407 424.093 C 542.276 422.418 540.214 421.806 543.16 421.842 C 543.653 421.849 543.681 420.85 543.084 420.701 C 542.665 420.597 540.585 420.322 540.651 419.903 C 540.922 418.155 542.997 418.716 544.598 418.591 C 544.037 418.328 543.003 418.086 542.628 417.592 C 542.291 417.148 541.955 416.704 541.62 416.26 C 541.367 415.928 542.204 415.623 542.231 415.292 C 542.39 413.306 541.072 411.585 541.093 409.756 C 541.117 407.817 542.571 406.733 542.234 404.547 C 542.142 403.94 542.887 402.554 543.047 401.871 C 543.218 401.142 541.706 401.375 542.761 399.985 C 541.252 399.317 540.223 398.797 539.002 397.703 C 539.556 398.615 539.718 399.635 539.96 400.658 C 540.273 401.978 538.667 401.656 537.922 401.647 C 538.164 402.525 537.999 403.343 537.89 404.226 C 535.598 403.711 534.143 401.873 532.951 400.036 C 532.941 400.817 533.105 402.583 532.054 402.95 C 530.641 403.444 530.139 401.714 529.894 400.867 C 529.629 399.934 529.935 398.912 530.211 398.026 C 530.56 396.918 530.323 396.014 530.774 394.847 C 532.603 396.042 533.681 397.464 535.879 397.49 C 536.364 397.496 536.384 396.797 536.774 396.641 C 537.138 396.494 537.589 396.554 537.971 396.443 C 538.862 396.183 538.494 395.446 539.047 395.02 C 539.473 394.695 539.895 395.125 540.245 394.784 C 541.045 394.003 542.346 394.717 542.999 394.135 C 543.873 393.358 542.994 392.615 544.318 391.915 C 545.04 391.531 547.198 391.005 547.17 390.086 C 547.127 388.816 545.858 388.257 544.972 387.621 C 544.825 388.309 544.68 388.997 544.533 389.685 C 544.35 390.543 543.698 390.37 543.039 390.867 C 541.557 391.982 541.884 392.573 539.923 392.551 C 540.052 391.233 540.182 389.914 540.314 388.598 C 539.82 389.935 539.313 391.239 538.719 392.536 C 538.497 391.96 538.273 391.383 538.053 390.807 C 538.123 391.223 538.593 392.584 538.21 392.791 C 537.413 393.22 536.896 393.35 536.552 394.178 C 536.3 394.78 535.236 395.159 534.695 395.494 C 534.329 395.721 533.636 394.352 533.252 394.122 C 532.866 393.891 531.475 393.357 531.316 392.961 C 531.231 392.751 531.848 390.697 532.034 390.56 C 533.508 389.465 534.158 392.274 535.813 391.123 C 534.99 389.55 534.54 389.147 535.115 387.49 C 534.96 387.937 537.965 386.906 538.274 386.679 C 539.69 385.642 539.501 384.853 539.52 383.214 C 539.543 381.284 541.06 381.862 542.287 382.083 C 541.712 380.53 541.964 379.653 540.289 380.258 C 540.403 380.216 538.3 377.888 537.871 377.555 C 537.988 380.422 537.974 382.988 537.425 385.809 C 536.557 385.487 535.495 384.783 534.582 385.051 C 532.763 385.585 532.833 385.642 531.595 384.19 C 532.225 384.198 532.856 384.206 533.487 384.214 C 533.297 382.037 533.034 382.5 530.881 382.572 C 529.309 382.624 528.003 382.384 528.023 380.623 C 528.037 379.696 530.72 378.472 529.953 377.631 C 529.731 377.39 528.039 377.607 527.677 377.603 C 527.322 377.599 526.976 378.978 526.837 379.314 C 526.614 378.931 526.21 378.654 525.988 378.272 C 524.73 380.023 524.085 382.198 525.533 384.182 C 526.587 385.623 526.858 385.885 528.543 386.426 C 529.552 386.75 530.553 387.111 531.556 387.46 C 530.827 388.271 529.188 390.423 527.997 390.035 C 525.852 389.335 525.285 388.716 523.645 387.191 C 522.271 385.913 521.036 385.108 520.045 383.508 C 519.758 383.047 519.029 381.733 518.551 381.623 C 517.921 381.476 516.4 382.425 515.723 382.576 C 515.247 382.682 512.448 379.743 511.89 379.285 C 510.51 378.152 510.148 376.587 509.253 375.056 C 507.491 372.034 506.045 368.834 504.293 365.789 C 502.065 366.465 503.246 370.327 503.873 371.807 C 504.941 374.313 506.585 375.908 508.531 377.704 C 510.115 379.166 511.346 381.054 512.772 382.679 C 514.064 384.149 517.24 386.668 515.541 388.64 C 517.875 388.669 518.524 389.37 520.03 391.132 C 521.373 392.704 521.954 393.177 520.113 394.718 C 521.349 395.356 522.934 395.822 523.35 397.339 C 523.452 397.71 523.503 401.355 523.196 401.526 C 520.077 403.259 517.871 403.122 514.396 403.08 C 511.993 403.05 511.972 396.782 511.693 395.052 C 511.229 392.174 509.155 389.108 507.785 386.55 C 504.823 381.023 500.934 376.04 497.262 370.985 C 493.553 365.878 490.152 360.559 486.424 355.458 C 483.089 350.898 479.552 346.492 476.162 341.973 C 474.132 339.265 471.921 336.623 470.044 333.806 C 468.37 331.292 466.886 328.565 464.853 326.333 C 464.526 325.974 463.66 325.348 463.666 324.831 C 463.677 324.007 465.066 321.212 464.449 320.65 C 463.172 319.487 471.027 320.32 470.018 318.911 C 469.931 318.788 469.616 314.876 467.747 314.754 C 466.321 314.659 468.712 313.552 467.376 313.458 C 466.917 313.426 463.885 314.365 462.841 314.951 C 461.82 315.525 460.997 313.36 460.012 314.014 C 459.683 314.232 460.292 316.081 460.237 316.598 C 460.178 317.182 459.484 316.46 459.601 317.103 C 459.792 318.162 460.469 320.234 460.452 320.215 C 460.027 319.631 457.834 317.14 457.403 316.563 C 456.951 315.963 457.882 315.353 457.422 314.757 C 456.856 314.016 454.057 310.543 453.484 309.805 C 453.174 309.406 454.989 307.378 454.68 306.979 C 454.148 306.294 453.603 306.933 453.141 306.186 C 452.831 305.689 451.249 307.045 450.943 306.547 C 450.565 305.933 450.729 305.57 450.315 304.99 C 449.992 304.539 451.87 303.092 451.505 302.682 C 451.189 302.331 450.688 302.139 450.742 301.64 C 450.835 300.815 448.655 301.288 448.071 300.689 C 447.027 299.619 446.252 297.901 445.133 297.008 C 443.975 296.086 443.411 294.918 442.357 293.966 C 441.829 293.488 438.709 292.468 440.262 291.092 C 440.635 290.76 441.592 289.542 442.068 289.489 C 442.59 289.432 443.173 290.362 443.74 290.369 C 445.446 290.391 447.043 290.401 448.101 288.702 C 448.734 287.682 448.857 285.859 449.269 284.671 C 449.9 282.851 449.847 281.582 449.78 279.634 C 449.67 276.558 447.621 273.522 446.085 270.996 C 442.905 265.77 439.737 260.71 436.153 255.742 C 434.297 253.169 432.562 250.571 430.598 248.078 C 430.219 247.597 429.603 247.046 429.344 246.487 C 429.137 246.036 429.303 245.225 428.953 244.865 C 427.765 243.649 426.536 242.473 425.462 241.152 C 423.21 238.384 420.924 235.4 417.973 233.442 C 416.979 232.781 417.265 232.57 415.913 232.402 C 415.388 232.338 414.772 231.003 414.472 230.578 C 414.079 230.021 414.04 229.035 413.562 228.57 C 413.068 228.09 411.656 227.909 410.99 227.679 C 412.847 226.473 412.858 225.554 413.451 223.406 C 415.788 224.182 418.187 225.107 420.655 225.386 C 422.326 225.577 423.701 225.148 425.243 224.572 C 426.051 224.27 426.29 221.821 426.837 221.855 C 429.653 222.031 432.435 222.317 435.237 222.633 C 435.665 222.681 437.043 220.434 437.752 220.09 C 438.965 219.503 440.102 220.819 441.175 221.508 C 438.361 222.037 438.059 223.337 437.857 225.996 C 437.78 227.023 437.383 228.093 437.147 229.096 C 436.909 230.111 437.733 230.968 436.75 231.606 C 435.938 232.133 437.27 236.369 437.337 237.722 C 437.444 239.848 438.012 241.854 439.087 243.655 C 440.456 245.952 441.531 247.643 443.458 249.474 C 444.965 250.908 446.543 251.887 447.753 253.68 C 448.396 254.632 449.002 255.598 449.609 256.574 C 450.096 257.36 448.139 258.081 447.667 257.597 C 446.789 256.695 446.674 255.644 445.934 254.776 C 445.269 253.994 443.976 253.467 443.206 252.678 C 443.884 254.176 444.588 255.576 445.391 257.006 C 446.321 258.665 447.219 258.749 449.154 258.773 C 448.805 260.413 448.88 261.136 450.579 261.904 C 452.002 262.548 453.464 263.317 454.988 263.716 C 456.544 264.126 458.047 264.585 457.149 266.442 C 456.93 266.897 456.324 267.666 455.926 267.976 C 454.905 268.773 454.673 267.778 454.818 269.422 C 454.966 271.116 455.062 272.611 456.926 272.633 C 457.676 272.643 458.009 272.415 458.633 271.966 C 458.91 271.766 458.882 271.139 459.161 270.94 C 459.456 270.73 460.302 271.045 460.541 270.786 C 461.75 269.472 460.465 267.144 459.928 265.874 C 459.293 264.369 458.738 263.464 458.757 261.817 C 460.479 262.215 463.081 261.578 464.451 260.51 C 465.846 259.422 465.777 256.456 466.242 254.681 C 467.691 255.016 467.327 258.867 468.066 258.877 C 469.414 258.893 469.814 258.692 470.635 259.744 C 471.171 260.431 471.663 261.111 471.166 261.884 C 470.605 262.756 469.723 262.155 468.896 262.758 C 468.073 263.361 467.099 263.184 466.088 263.22 C 464.043 263.292 464.715 266.279 464.939 267.471 C 465.782 271.967 469.266 273.139 473.357 273.375 C 475.662 273.508 476.492 272.775 476.663 270.611 C 476.81 268.769 478.063 267.831 478.537 265.974 C 479.953 267.115 480.426 267.071 479.921 268.83 C 480.988 268.932 481.799 268.927 482.858 268.763 C 483.18 268.714 484.985 270.652 485.5 270.971 C 486.342 271.491 486.962 269.525 488.033 270.348 C 489.043 271.125 489.59 272.43 490.255 273.505 C 490.527 273.944 492.372 273.682 493.004 274.038 C 494.085 274.644 494.954 274.58 496.177 274.513 C 497.112 274.463 498.466 274.217 499.339 274.487 C 500.616 274.884 501.007 275.798 502.421 275.815 C 503.27 275.826 504.993 275.82 505.64 276.371 C 506.531 277.126 506.513 278.825 506.502 279.847 C 506.47 282.452 507.879 284.231 510.18 285.029 C 512.348 285.781 514.492 284.568 516.623 285.204 C 517.799 285.556 520.973 288.208 521.099 289.465 C 520.378 289.659 519.67 289.727 518.931 289.78 C 517.982 289.848 517.763 290.951 517.329 291.741 C 515.928 291.236 516.978 290.435 516.345 289.669 C 515.95 289.188 515.552 288.707 515.154 288.225 C 514.835 287.839 514.739 288.767 514.411 288.318 C 512.964 286.338 511.283 287.602 510.39 289.333 C 512.28 288.182 514.614 290.89 515.129 292.359 C 512.785 291.757 511.424 292.209 509.818 293.972 C 510.969 293.528 514.979 292.621 515.829 294.04 C 516.926 295.871 518.529 297.532 516.338 298.956 C 517.479 299.614 518.449 300.197 519.419 301.08 C 519.912 301.53 519.433 303.87 519.368 304.542 C 520.109 304.593 520.952 304.775 521.689 304.699 C 522.509 304.614 523.188 303.964 523.894 303.822 C 525.768 303.446 526.97 303.84 528.267 305.038 C 529.221 303.543 525.939 301.911 524.692 301.897 C 523.764 301.885 522.835 301.874 521.909 301.862 C 520.549 301.845 520.766 301.603 520.456 300.295 C 521.591 300.594 523.047 300.693 521.4 299.634 C 520.819 299.261 520.318 297.234 519.985 296.547 C 521.233 296.759 522.441 298.302 523.695 298.858 C 525.266 299.554 526.052 299.709 527.695 299.351 C 527.176 298.582 525.938 297.501 527.209 296.764 C 527.804 296.422 529.884 297.03 530.561 297.192 C 529.392 294.536 531.455 294.604 533.691 294.521 C 533.657 293.997 533.503 293.359 533.58 292.842 C 533.799 292.801 534.013 292.761 534.229 292.721 C 534.287 292.366 534.162 291.879 534.135 291.522 C 534.121 291.358 536.749 291.012 537.225 290.435 C 537.39 290.911 537.556 291.386 537.723 291.86 C 536.023 292.263 535.334 292.205 535.013 293.989 C 534.768 295.356 534.031 296.403 535.464 297.382 C 533.247 297.623 534.125 299.52 534.797 300.901 C 535.83 303.03 536.885 303.955 539.117 304.784 C 538.173 306.561 536.185 305.357 534.73 304.73 C 535.235 305.718 535.64 306.808 536.386 307.637 C 537.547 308.926 537.389 309.536 538.004 311.093 C 538.6 312.587 539.772 313.124 540.813 314.21 C 541.509 314.94 542.913 314.399 543.778 314.002 C 544.247 316.164 545.553 317.599 546.289 319.583 C 547.063 321.659 545.796 323.138 547.083 325.189 C 547.523 325.894 548.291 325.802 549.107 325.812 C 550.313 325.826 550.662 326.442 551.1 327.643 C 551.803 329.588 551.562 331.821 551.54 333.843 C 548.606 332.741 549.064 335.898 549.037 337.91 C 549.028 338.64 550.093 339.827 550.295 340.688 C 550.652 342.229 549.698 342.36 548.455 343.269 C 548.881 343.115 552.423 342.32 552.413 343.263 C 552.398 344.551 552.382 345.837 552.365 347.125 C 552.332 349.935 553.588 351.363 555.211 353.504 C 553.597 354.682 552.844 354.453 550.835 354.316 C 550.409 354.288 550.504 352.561 550.237 352.238 C 549.845 351.756 548.59 351.453 548.015 351.179 C 547.994 352.878 547.874 353.435 547.004 354.887 C 546.422 355.855 545.658 356.966 545.456 358.077 C 544.891 361.234 545.272 363.273 546.87 366.064 C 547.909 367.878 548.97 371.277 551.449 371.568 C 553.579 371.819 554.115 371.519 555.045 373.441 C 555.644 374.678 555.762 376.101 556.333 377.34 C 558.745 382.544 562.038 387.34 566.558 390.944 C 567.706 391.861 568.828 392.015 570.271 392.373 C 572.145 392.839 570.427 394.638 569.918 395.381 C 569.356 396.204 567.629 395.847 566.933 396.722 C 565.662 398.315 566.582 398.656 567.719 400.286 C 567.67 399.484 567.625 398.679 567.576 397.877 C 568.449 397.744 568.662 398.411 569.142 399.042 C 569.671 399.74 570.548 400.013 571.318 400.412 C 572.562 401.052 574.29 400.748 575.271 401.757 C 573.978 402.224 572.866 402.76 571.49 402.744 C 570.047 402.726 568.93 403.311 567.548 403.393 C 566.021 403.483 564.551 403.255 564.904 405.417 C 565.177 407.091 566.648 407.265 567.974 407.691 C 567.187 409.713 566.165 411.522 564.98 413.332 C 564.807 411.904 564.312 405.099 561.624 406.408 C 562.016 408.381 562.076 410.566 562.629 412.477 C 562.851 413.24 563.805 415.112 563.522 415.864 C 563.008 417.225 562.858 418.064 562.839 419.52 C 562.825 420.673 562.821 421.582 563.135 422.684 C 563.459 423.821 564.959 424.248 565.947 424.82 C 566.052 424.88 568.08 423.597 568.468 423.44 C 569.666 422.959 570.803 422.866 572.093 422.71 C 571.748 423.624 571.701 424.47 570.773 424.828 C 569.796 425.205 568.56 424.935 567.717 425.345 C 566.535 425.918 566.187 426.416 565.415 427.491 C 565.214 427.77 564.613 427.559 564.463 427.779 C 564.208 428.148 564.313 429.211 564.267 429.669 C 564.842 429.618 565.415 429.569 565.989 429.518 C 566.17 431.813 566.18 434.259 566.756 436.499 C 567.063 437.703 567.191 439.271 567.75 440.38 C 568.331 441.537 569.583 442.613 570.409 443.617 C 571.384 444.807 569.386 445.766 571.448 446.067 C 571.929 446.137 575.075 446.361 575.074 446.473 C 575.059 447.556 575.321 449.082 573.745 448.576 C 572.411 448.149 571.09 447.79 569.728 447.458 C 569.932 448.098 570.136 448.738 570.342 449.378 C 570.583 450.134 572.21 450.072 572.737 450.609 C 574.057 451.963 573.694 453.445 573.422 455.076 C 574.378 454.961 576.053 455.275 575.955 454.157 C 575.836 452.81 575.392 452.667 574.324 451.818 C 576.144 450.553 576.319 448.779 576.794 446.687 C 577.68 447.796 578.117 448.393 579.346 448.976 C 580.92 449.72 580.663 451.757 579.472 452.74 C 581.225 452.692 580.888 453.533 580.992 454.997 C 581.287 454.255 581.586 453.514 581.88 452.77 C 582.276 453.177 582.673 453.582 583.068 453.989 C 583.667 452.451 583.392 451.793 582.983 450.174 C 582.554 448.478 585.993 449.169 586.47 449.266 C 587.441 449.463 588.38 449.736 589.318 450.054 C 589.693 450.18 589.346 451.439 589.308 451.805 C 589.259 452.27 589.776 452.558 589.802 453.011 C 589.845 453.824 589.888 454.638 589.933 455.451 C 590.803 455.346 591.83 455.379 592.66 455.09 C 594.314 454.51 594.288 454.295 595.33 455.719 C 595.855 456.435 597.413 454.689 597.86 454.689 C 598.437 454.688 600.244 455.738 600.661 456.164 C 601.751 457.283 604.241 459.059 604.634 460.618 C 605.196 462.824 605.436 465.076 606.052 467.264 C 606.425 468.595 606.401 468.952 606.027 470.292 C 605.675 471.551 605.968 472.434 606.223 473.732 C 606.621 475.742 606.627 477.956 608.051 479.592 C 608.95 480.625 611.725 482.176 613.14 481.861 C 614.258 481.612 615.466 481.506 616.46 480.93 C 618.134 479.961 618.821 480.003 620.422 481.118 C 620.966 479.977 621.261 479.061 622.263 478.302 C 623.417 477.427 623.893 478.217 625.097 478.938 C 624.346 477.618 624.179 476.28 623.528 475.034 C 623.074 474.164 621.173 471.712 621.247 470.842 C 621.531 467.453 621.761 464.863 620.907 461.53 C 620.496 459.928 620.272 458.438 619.357 457.065 C 618.404 455.635 617.445 454.209 616.479 452.789 C 615.638 451.557 614.608 450.157 614.626 448.609 C 614.644 447.319 614.613 447.496 615.881 447.458 C 616.846 447.43 617.807 447.402 618.771 447.373 C 617.836 447 616.326 446.835 616.21 445.618 C 617.127 445.744 618.042 445.872 618.959 445.998 C 618.456 445.739 614.75 443.881 616.984 443.908 C 618.796 443.93 619.582 443.317 621.079 442.344 C 621.838 441.852 621.138 439.082 620.251 438.785 C 619.013 438.37 618.811 439.778 618.529 440.594 C 618.225 441.474 617.455 441.508 616.603 441.837 C 617.007 440.296 617.343 439.033 618.574 437.984 C 620.165 436.625 618.045 436.022 616.999 435.085 C 615.83 434.036 616.465 432.161 616.775 430.891 C 616.873 430.483 617.783 429.635 617.748 429.524 C 617.483 428.697 617.22 427.871 616.954 427.044 C 618.772 426.936 619.357 427.406 619.381 425.513 C 619.378 425.777 616.993 424.562 616.709 424.127 C 615.192 421.789 612.286 421.594 610.508 419.394 C 609.567 418.229 609.335 416.557 609.356 415.084 C 609.377 413.204 609.304 412.536 611.285 412.005 C 612.835 411.59 613.604 411.751 614.819 412.749 C 616.198 413.882 616.211 414.433 616.569 416.2 C 616.678 415.785 616.958 415.407 617.098 415.001 C 617.984 416.039 618.393 416.435 619.656 416.926 C 619.39 415.18 620.15 415.555 621.583 415.572 C 621.822 415.575 623.162 417.578 623.686 417.921 C 625 418.783 624.452 419.3 624.112 420.804 C 623.857 421.913 623.864 422.58 623.358 423.682 C 624.465 424.142 627.389 424.221 627.677 425.437 C 627.921 426.466 628.325 427.089 627.694 427.95 C 627.031 428.853 627.658 429.456 628.093 430.451 C 627.347 430.556 626.601 430.661 625.853 430.768 C 626.482 432.569 626.968 431.398 628.249 432.002 C 628.678 432.206 630.119 433.79 630.113 434.255 C 630.096 435.68 629.191 440.509 632.037 438.931 C 633.246 438.258 633.67 437.607 634.302 436.385 C 634.704 435.602 636.365 435.67 637.29 435.417 C 638.452 435.1 639.615 434.778 640.774 434.445 C 642.097 434.066 642.314 433.174 643.365 434.252 C 643.854 434.752 645.238 435.732 645.404 436.342 C 645.833 437.923 644.399 437.243 643.525 437.785 C 642.414 438.476 641.431 439.006 640.208 439.476 C 639.446 439.77 639.803 441.697 639.306 442.29 C 638.556 443.186 637.331 442.979 636.549 444.119 C 635.98 444.954 636.524 446.65 635.976 447.238 C 634.828 448.482 634.325 446.631 634.577 449.029 C 634.759 450.739 635.143 450.762 636.609 451.72 C 636.455 449.351 636.235 447.464 637.716 445.538 C 638.68 446.468 639.642 447.397 640.607 448.326 C 640.618 447.409 640.627 446.492 640.64 445.574 C 641.816 445.757 642.786 445.681 643.617 446.535 C 644.139 447.067 644.656 447.602 645.179 448.134 C 645.459 448.423 644.715 449.371 644.719 449.754 C 644.734 450.663 645.757 451.967 646.116 452.83 C 646.665 454.157 647.223 455.413 647.905 456.675 C 646.881 456.777 646.343 456.473 646.375 457.552 C 646.404 458.427 646.097 460.204 646.583 460.951 C 647.313 462.073 647.547 462.168 647.168 463.394 C 646.799 464.588 646.429 465.784 646.061 466.978 C 646.793 466.144 648.301 463.428 649.52 465.299 C 650.196 466.337 649.639 469.822 649.622 471.05 C 649.583 474.296 649.542 477.541 649.503 480.785 C 648.157 479.749 647.528 478.759 646.621 477.309 C 646.762 479.899 647.015 481.555 649.099 483.306 C 650.166 484.202 649.465 484.459 649.615 485.777 C 649.722 486.737 650.239 487.793 650.524 488.714 C 651.146 490.721 651.683 492.699 652.168 494.742 C 652.642 496.741 652.257 498.286 653.18 500.189 C 654.891 503.716 658.382 506.191 659.805 509.879 C 660.164 510.816 661.108 511.878 660.045 512.317 C 659.019 512.742 658.189 511.672 657.455 510.919 C 655.849 509.272 654.424 507.428 652.81 505.776 C 652.799 506.607 652.656 507.397 653.021 508.149 C 653.438 509.013 654.372 509.869 653.412 510.387 C 651.967 511.166 651.826 513.422 652.398 515.008 C 653.251 517.372 653.565 517.741 655.568 519.201 C 657.491 520.601 659.017 522.379 660.966 523.786 C 662.293 524.741 664.736 524.504 666.346 524.521 C 668.254 524.544 669.976 524.063 668.289 522.045 C 667.353 520.93 664.693 521.858 663.289 521.214 C 661.009 520.169 659.667 517.696 658.885 515.482 C 659.59 515.274 660.298 515.065 661.006 514.857 C 661.321 514.765 662.058 516.575 662.658 516.732 C 664.255 517.152 664.926 519.297 666.556 519.882 C 667.882 520.36 669.639 520.557 670.421 521.775 C 670.984 522.649 671.539 523.549 672.18 524.37 C 673.031 525.454 674.592 525.963 675.621 526.881 C 678.451 529.412 682.001 530.639 685.528 531.901 C 687.101 532.462 687.911 532.69 689.565 532.619 C 691.538 532.533 691.838 533.993 692.939 535.599 C 694.849 538.383 698.242 539.397 701.212 540.929 C 703.745 542.235 706.438 543.717 709.121 544.659 C 712.098 545.702 715.441 546.117 718.517 546.828 C 719.807 547.126 721.338 548.533 722.463 549.22 C 723.706 549.982 724.78 550.451 726.155 550.951 C 726.955 551.242 729.993 551.818 730.406 552.569 C 731.079 553.798 731.745 556.026 732.991 556.72 C 735.079 557.876 734.788 558.137 734.875 560.541 C 734.96 562.998 738.278 561.518 738.532 559.989 C 738.587 559.662 737.141 558.781 738.009 558.359 C 738.712 558.018 740.452 558.768 740.796 557.781 C 741.147 556.766 740.406 555.665 741.927 556.039 C 743.158 556.34 744.372 556.839 745.623 557.044 C 749.285 557.639 752.685 556.618 756.293 555.942 C 762.429 554.792 766.966 550.274 770.068 545.103 C 770.756 543.961 771.99 541.191 773.184 540.624 C 773.553 540.449 773.929 541.103 774.562 540.641 C 775.01 540.314 775.36 539.795 775.679 539.356 C 776.25 538.573 776.688 537.848 777.077 536.971 C 777.545 535.917 777.695 535.893 777.341 534.977 C 776.872 533.76 779.295 532.816 779.952 532.133 C 780.711 531.346 780.245 529.589 780.896 529.019 C 781.322 528.648 783.034 528.728 783.599 528.648 C 785.476 528.392 787.613 528.136 789.39 527.496 C 790.288 527.172 791.996 526.76 792.634 526.068 C 793.271 525.374 793.537 523.703 793.878 522.814 C 796.865 524.522 800.106 522.827 800.46 519.281 C 800.495 518.93 800.274 517.561 800.648 517.563 C 801.462 517.572 802.279 517.604 803.095 517.575 C 804.78 517.517 806.453 517.462 808.14 517.485 C 809.767 517.502 811.317 517.673 812.932 517.877 C 813.6 517.959 814.278 518.007 814.949 518.072 C 815.66 518.14 816.312 517.319 817.007 517.25 C 818.342 517.116 820.144 518.152 821.523 518.308 C 823.272 518.503 824.755 518.908 826.443 519.429 C 825.41 519.961 823.171 520.534 823.485 522.144 C 823.482 522.127 825.594 525.719 825.243 525.63 C 829.225 526.676 832.982 527.315 836.399 529.801 C 837.146 530.344 839.998 532.066 840.217 532.849 C 840.544 534.042 838.222 537.229 837.606 538.125 C 835.869 540.644 834.305 543.251 832.414 545.662 C 831.448 546.893 830.293 547.799 829.095 548.811 C 828.372 549.423 828.64 552.401 828.718 553.38 C 828.788 554.266 828.377 554.557 827.83 555.27 C 827.472 555.732 827.703 556.914 827.696 557.481 C 827.679 558.933 825.939 560.238 824.728 560.772 C 821.55 562.184 824.484 567.26 825.263 569.529 C 825.396 569.921 822.945 572.017 822.537 572.057 C 821.612 572.146 821.152 571.882 821.139 572.858 C 821.125 573.821 821.116 574.782 821.103 575.74 C 821.086 577.252 822.935 576.384 822.283 578.143 C 821.912 579.145 821.115 580.257 821.008 581.283 C 820.893 582.39 819.203 583.206 819.867 584.348 C 820.721 585.81 821.196 586.171 822.682 587.008 C 821.201 588.191 820.793 588.347 820.596 590.227 C 820.483 591.315 820.716 593.197 819.589 593.518 C 818.053 593.959 817.779 595.671 819.566 595.83 C 820.28 595.895 820.685 595.669 820.674 596.408 C 820.67 596.821 820.885 598.147 820.555 598.419 C 819.455 599.327 818.382 600.217 817.361 601.212 C 816.177 602.366 816.54 605.277 816.289 606.869 C 815.876 609.495 812.962 611.303 810.68 612.41 C 808.394 613.517 807.226 616.994 805.093 618.454 C 803.29 619.684 802.229 619.688 800.949 621.706 C 799.927 623.318 799.158 623.616 797.963 622.037 C 797.39 621.28 795.504 620.607 794.574 620.561 C 792.625 620.465 792.173 621.358 791.406 622.844 C 790.903 623.818 789.958 625.591 790.197 626.702 C 790.555 628.388 792.234 627.847 793.451 627.776 C 792.537 628.617 790.801 629.661 790.266 630.773 C 789.89 631.555 789.513 632.337 789.136 633.118 C 788.833 633.748 789.272 634.636 789.057 635.292 C 788.883 635.822 788.223 635.945 788.1 636.569 C 787.941 637.369 787.711 638.179 787.625 638.988 C 787.456 640.561 787.298 642.134 787.086 643.704 C 786.646 646.984 785.938 650.427 786.105 653.754 C 786.19 655.433 786.096 656.7 787.84 657.488 C 789.695 658.327 791.049 658.65 793.07 658.913 C 792.643 660.731 791.975 660.98 790.431 662.083 C 789.482 662.761 787.76 663.874 787.59 665.036 C 787.131 668.169 785.298 670.686 782.75 672.551 C 782.013 670.088 780.484 666.344 780.791 663.751 C 780.941 662.49 782.029 661.013 782.403 659.726 C 782.906 657.999 783.166 656.323 783.432 654.541 C 783.552 653.727 781.133 653.786 780.318 653.692 C 778.291 653.457 776.513 652.734 774.544 652.391 C 771.055 651.784 767.68 651.718 764.15 651.673 C 761.257 651.637 758.333 651.484 755.441 651.587 C 752.494 651.691 748.496 651.275 746.453 653.553 C 744.495 655.736 741.429 656.19 738.943 657.519 C 736.714 658.71 733.889 661.414 731.471 661.712 C 729.477 661.962 728.491 662.085 726.831 663.164 C 725.736 663.874 725.259 665.791 724.695 666.939 C 724.11 668.129 723.997 669.696 723.473 670.959 C 723.009 672.083 721.504 673.2 720.528 673.94 C 718.706 675.322 716.515 678.039 715.755 680.224 C 714.852 682.828 715.055 685.792 715.099 688.586 C 715.558 688.476 716.019 688.367 716.479 688.261 C 716.642 691.036 716.493 694.267 717.627 696.853 C 718.154 698.045 718.282 699.466 719.103 700.447 C 720.416 702.019 720.836 702.311 722.842 702.619 C 723.984 702.795 726.368 702.347 727.19 703.023 C 728.606 704.187 727.372 705.848 726.311 706.887 C 724.14 709.006 723.243 712.735 722.735 715.578 C 722.581 716.442 722.252 717.184 722.045 718.029 C 721.821 718.953 722.144 719.969 721.875 720.866 C 721.449 722.291 720.111 722.781 719.308 724.088 C 718.451 725.483 718.616 727.071 716.875 727.301 C 715.614 727.466 715.193 730.539 714.915 731.434 C 714.456 732.916 713.722 734.254 713.016 735.626 C 712.321 736.973 712.361 738.381 712.233 739.833 C 712.114 741.174 710.824 742.362 710.812 743.563 C 710.803 744.193 711.011 745.255 710.785 745.836 C 710.499 746.563 709.453 747.04 709.041 747.707 C 708.18 749.1 707.791 750.261 706.708 751.607 C 705.924 752.578 704.402 753.185 703.22 753.585 C 701.942 754.019 699.885 754.419 698.917 755.434 C 697.818 756.589 697.405 759.562 696.549 761.046 C 695.905 762.161 695.919 763.72 695.373 764.933 C 694.636 766.563 694.098 768.166 693.564 769.876 C 693.124 771.279 692.49 772.111 692.809 773.58 C 693.139 775.1 693.405 776.675 692.346 777.882 C 691.438 778.919 689.604 778.09 688.363 778.43 C 687.092 778.777 685.792 779.895 684.77 780.715 C 683.545 781.704 682.107 782.407 681.669 783.94 C 681.228 785.479 681.068 787.104 679.471 787.613 C 676.581 788.537 676.559 793.031 673.99 794.053 C 671.834 794.909 671.759 795.054 670.911 797.23 C 670.404 798.54 669.265 799.588 668.55 800.803 C 667.783 802.113 666.972 803.302 666.013 804.484 C 664.591 806.239 664.26 806.599 664.093 808.848 C 663.839 812.228 661.897 813.679 659.921 816.188 C 658.946 817.425 658.443 818.362 658.426 819.889 C 658.419 820.417 657.312 820.502 657.038 820.893 C 656.633 821.473 656.976 822.505 656.559 823.114 C 655.545 824.596 654.739 826.095 653.923 827.691 C 652.983 829.53 651.601 830.816 651.174 832.829 C 650.812 834.541 650.776 836.566 648.843 836.737 C 647.63 836.841 646.892 839.113 646.039 840.062 C 644.75 841.501 643.143 841.52 642.504 843.482 C 641.93 845.25 641.186 846.293 639.967 847.695 C 639.494 848.241 638.81 848.286 638.119 848.484 C 637.611 848.631 637.234 849.682 636.965 850.117 C 636.631 850.659 635.564 850.466 635.157 850.911 C 634.636 851.482 634.582 853.442 634.223 854.261 C 633.525 855.862 632.009 856.202 630.48 856.941 C 629.185 857.571 627.915 858.797 626.64 859.558 C 625.411 860.293 624.034 860.466 622.673 860.903 C 621.415 861.307 620.332 862.612 619.515 863.628 C 618.445 864.957 618.351 865.595 616.735 865.999 C 615.097 866.411 613.9 867.004 612.414 867.819 C 609.933 869.175 608.914 871.617 606.743 873.432 C 605.67 874.328 604.105 873.055 602.854 873.268 C 600.913 873.593 600.062 874.452 598.672 875.806 C 597.225 877.219 591.267 875.891 590.617 873.828 C 589.485 870.24 589.968 866.556 589.783 862.831 C 589.648 860.153 586.249 857.847 584.139 856.696 C 582.633 855.877 581.767 855.691 580.036 855.57 C 579.246 855.52 578.018 855.194 577.339 855.718 C 576.582 856.299 576.023 857.434 575.182 857.841 C 574.482 858.181 571.793 860.084 571.224 859.89 C 570.741 859.722 569.394 859.534 569.268 859.013 C 569.037 858.035 568.924 857.779 568.228 857.065 C 567.462 856.28 566.424 853.802 566.819 852.659 C 567.182 851.608 568.39 850.764 568.403 849.579 C 568.415 848.666 568.423 847.752 568.436 846.837 C 568.453 845.343 567.989 844.642 566.625 843.804 C 566.306 843.608 565.173 842.661 564.935 842.969 C 564.458 843.592 564.158 844.114 563.457 844.451 C 560.347 845.958 558.962 847.729 558.918 851.209 C 558.907 852.044 558.929 852.79 558.716 853.591 C 558.461 854.562 558.262 854.195 557.334 854.262 C 555.658 854.381 554.73 854.108 553.566 852.839 C 551.296 850.368 550.452 846.352 552.174 843.482 C 553.631 841.054 557.32 840.853 558.872 838.476 C 559.735 837.161 560.52 835.808 561.308 834.444 C 561.555 834.017 562.852 833.766 563.293 833.446 C 564.252 832.75 564.599 831.419 565.537 830.614 C 565.548 831.61 565.452 832.55 565.329 833.537 C 565.699 833.467 567.034 833.432 567.07 833.048 C 567.142 832.231 567.472 831.288 566.985 830.599 C 565.745 828.851 565.476 828.122 567.078 826.56 C 568.082 825.584 569.224 824.93 570.434 825.398 C 571.394 825.768 572.102 825.172 572.444 824.286 C 572.578 823.937 573.477 821.283 573.132 820.93 C 573.118 820.919 573.042 821.061 573.051 821.072 C 573.738 817.041 574.706 812.887 577.77 810.058 C 579.39 808.56 581.571 807.481 582.703 805.531 C 583.701 803.811 584.141 801.733 585.062 799.948 C 587.232 795.736 588.307 791.127 590.766 787.049 C 592.01 784.992 591.392 781.467 591.918 779.04 C 592.359 777.014 592.821 774.116 595.281 775.918 C 596.067 774.635 594.517 774.367 593.593 774.147 C 592.562 773.904 592.784 773.328 592.608 772.296 C 592.385 770.965 592.979 769.249 593.15 767.907 C 593.62 764.192 593.829 761.54 593.189 757.877 C 592.673 754.931 593.104 752.026 592.247 749.14 C 591.325 746.036 590.633 743.034 589.354 740.057 C 588.189 737.348 586.895 734.82 585.253 732.354 C 583.431 729.62 581.154 728 578.889 725.674 C 576.919 723.655 574.682 720.548 572.217 719.28 C 569.058 717.653 565.957 717.401 562.456 717.358 C 561.179 717.342 559.917 717.633 558.654 717.827 C 560.095 716.666 553.358 714.191 552.082 713.947 C 550.718 713.686 548.558 713.713 547.357 713.044 C 546.158 712.378 545.512 710.667 544.39 709.854 C 541.682 707.894 538.992 705.911 536.301 703.927 C 535.255 703.155 534.534 701.471 533.802 700.399 C 532.952 699.155 531.664 698.166 530.687 697.011 C 528.9 694.899 527.094 691.944 524.131 691.233 C 522.751 690.902 521.326 690.649 519.987 690.18 C 517.819 689.42 515.726 689.618 513.565 689.16 C 510.398 688.485 507.758 687.213 504.837 685.832 C 503.372 685.139 501.943 684.437 500.525 683.657 C 499.01 682.825 498.075 681.194 496.996 679.867 C 494.698 677.04 491.666 673.324 491.355 669.574 C 491.162 667.234 491.337 664.861 491.365 662.564 C 491.382 661.005 491.25 657.354 492.534 656.229 C 495.866 653.302 499.363 650.661 502.326 647.358 C 502.73 646.902 503.978 648.115 504.716 647.396 C 505.52 646.609 506.414 645.915 507.278 645.192 C 508.116 644.494 508.741 643.503 509.424 642.655 C 509.777 642.218 511.683 642.442 512.263 642.414 C 512.244 642.421 512.059 642.53 512.057 642.533 C 512.225 641.75 514.764 640.359 515.321 639.924 C 516.207 639.232 517.094 638.542 517.982 637.849 C 519.241 636.868 521.492 636.452 523.01 636.004 C 522.718 634.351 529.158 635.196 529.634 635.928 C 529.628 635.919 529.403 635.909 529.376 635.91 C 531.275 636.188 535.525 636.729 536.909 635.136 C 538.722 633.047 540.093 630.634 542.197 628.84 C 544.094 627.221 546.58 625.502 548.004 623.482 C 549.652 621.178 551.262 618.877 552.871 616.573" style=""/>
  <path fill="#FFFFCC" stroke="#2C689A" d="M 529.628 293.655 L 527.919 292.773 L 526.708 293.275 L 528.075 294.152 L 529.261 295.543 L 529.628 293.655 Z" style=""/>
  <path fill="#FFFFCC" stroke="#2C689A" d="M 506.991 273.418 L 507.285 274.879 L 507.477 275.833 L 508.029 272.914 L 506.991 273.418 Z" style=""/>
  <path fill="#FFFFCC" stroke="#2C689A" d="M 566.451 364.137 L 564.571 363.082 L 562.507 363.057 L 563.861 364.794 L 566.451 364.137 Z" style=""/>
  <path fill="#FFFFCC" stroke="#2C689A" d="M 568.077 357.791 L 569.465 356.775 L 567.061 356.401 L 564.647 356.888 L 566.18 358.111 L 568.077 357.791 Z" style=""/>
  <path fill="#FFFFCC" stroke="#2C689A" d="M 594.091 383.403 L 593.365 386.492 L 592.986 389.24 L 590.407 389.208 L 588.887 386.954 L 589.089 384.376 L 591.509 383.544 L 592.535 384.072 L 594.091 383.403 Z" style=""/>
  <path fill="#FFFFCC" stroke="#2C689A" d="M 574.049 404.151 L 575.754 405.548 L 575.728 407.785 L 575.365 409.329 L 573.305 408.96 L 571.945 407.739 L 573.154 407.238 L 574.197 406.39 L 572.647 406.371 L 571.795 405.673 L 572.157 404.128 L 574.049 404.151 Z" style=""/>
  <path fill="#FFFFCC" stroke="#2C689A" d="M 584.63 439.555 L 587.902 439.251 L 590.98 440.837 L 592.363 440.338 L 592.381 438.789 L 595.314 438.137 L 596.539 436.604 L 599.62 437.846 L 598.223 439.548 L 596.841 440.22 L 596.648 441.938 L 596.26 445.375 L 594.722 444.496 L 593.847 445.862 L 591.106 444.624 L 590.073 444.611 C 590.073 444.611 588.521 444.935 588.184 444.243 C 587.849 443.551 587.516 442.687 587 442.681 C 586.482 442.675 584.077 442.473 584.077 442.473 L 583.069 440.568 L 584.63 439.555 Z" style=""/>
  <path fill="#FFFFCC" stroke="#2C689A" d="M 599.868 445.764 L 599.323 448.165 L 599.283 451.435 L 597.746 450.384 L 596.567 448.477 L 597.265 447.797 L 597.285 446.077 L 599.868 445.764 Z" style=""/>
  <path fill="#FFFFCC" stroke="#2C689A" d="M 572.251 438.715 L 571.723 439.741 L 572.223 441.123 L 574.962 442.189 L 576.005 441.342 L 575.343 438.925 L 573.46 438.041 L 572.251 438.715 Z" style=""/>
  <path fill="#FFFFCC" stroke="#2C689A" d="M 577.429 437.402 L 577.451 435.338 L 578.822 436.042 L 578.801 437.763 L 578.774 439.998 L 577.21 441.183 L 575.862 439.102 L 575.879 437.553 L 577.429 437.402 Z" style=""/>
  <path fill="#FFFFCC" stroke="#2C689A" d="M 613.489 373.144 L 616.233 373.865 L 616.211 375.758 L 618.256 377.331 L 617.886 379.392 L 615.992 379.713 L 618.027 382.147 L 620.761 383.729 L 622.293 385.124 L 621.412 386.834 L 621.717 389.936 L 622.375 392.524 L 624.076 394.093 L 625.422 396.691 L 625.912 398.934 L 624.867 399.954 L 622.974 400.103 L 620.922 399.045 L 620.942 397.324 L 619.918 396.624 L 617.858 396.083 L 617.024 394.007 C 617.024 394.007 616.693 392.971 616.18 392.621 C 615.669 392.271 615.154 392.093 614.647 391.397 C 614.139 390.703 613.122 389.659 612.441 388.962 C 611.763 388.265 610.739 387.564 610.739 387.564 L 609.549 386.346 L 609.225 384.793 L 610.946 384.642 C 610.946 384.642 611.459 384.992 611.637 384.479 C 611.816 383.964 612.164 383.624 611.827 382.932 C 611.492 382.24 610.984 381.545 610.984 381.545 L 609.285 379.804 C 609.285 379.804 610.834 379.823 611.347 379.829 C 611.866 379.836 612.721 380.19 612.727 379.502 C 612.735 378.814 612.907 378.816 612.57 378.297 C 612.232 377.776 611.045 376.556 611.045 376.556 C 611.045 376.556 610.368 375.687 611.236 374.838 C 612.101 373.987 613.489 373.144 613.489 373.144 Z" style=""/>
  <path fill="#FFFFCC" stroke="#2C689A" d="M 642.991 423.061 L 645.368 425.499 L 647.231 427.93 L 644.994 427.903 L 642.932 427.879 L 643.12 426.504 C 643.12 426.504 641.07 425.275 641.077 424.758 C 641.084 424.241 642.991 423.061 642.991 423.061 Z" style=""/>
   <path fill="#FFFFCC" stroke="#2C689A" d="M 676.956 488.003 L 676.916 491.271 L 675.026 491.077 L 673.333 488.819 L 675.577 488.157 L 676.803 486.451 L 676.956 488.003 Z" style=""/>
  <path fill="#FFFFCC" stroke="#2C689A" d="M 686.857 522.71 C 686.94 522.658 687.035 522.569 687.138 522.461 C 687.684 521.874 688.432 520.665 688.432 520.665 L 686.047 518.741 L 685.845 521.147 L 685.828 522.351 L 686.857 522.71 Z" style=""/>
  <path fill="#FFFFCC" stroke="#2C689A" d="M 740.494 512.697 L 741.506 514.258 L 742.886 514.103 L 744.105 512.741 L 742.909 512.041 L 741.359 512.365 L 740.494 512.697 Z" style=""/>
  <path fill="#FFFFCC" stroke="#2C689A" d="M 567.178 811.704 C 568.319 810.274 569.569 809.249 570.405 807.62 C 571.038 806.39 570.405 806.032 571.976 806.173 C 572.982 806.26 573.973 806.282 574.988 806.292 C 573.833 806.79 573.491 806.79 573.083 807.962 C 572.771 808.864 572.66 809.853 571.84 810.385 C 570.846 811.031 567.536 814.075 567.178 811.704" style=""/>
  <path fill="#FFFFCC" stroke="#2C689A" d="M 447.986 846.082 L 451.193 847.67 L 452.236 846.779 L 450.698 845.856 L 448.519 844.669 L 445.678 844.633 L 447.986 846.082 Z" style=""/>
  <path fill="#FFFFCC" stroke="#2C689A" d="M 491.587 815.9 L 493.543 814.505 L 495.622 813.238 C 495.622 813.238 497.84 811.329 497.845 810.942 C 497.849 810.552 499.431 807.736 499.431 807.736 L 499.528 810.189 C 499.528 810.189 500.56 810.46 500.565 810.07 C 500.57 809.682 500.719 808.009 500.719 808.009 C 500.719 808.009 501.25 806.854 501.769 806.599 C 502.288 806.348 503.199 805.713 503.199 805.713 C 503.199 805.713 503.22 803.908 503.226 803.519 C 503.23 803.13 503.241 802.229 503.241 802.229 C 503.241 802.229 502.727 802.094 502.735 801.577 C 502.742 801.061 502.487 800.671 503.138 800.162 C 503.791 799.655 503.799 799.139 503.799 799.139 C 503.799 799.139 503.828 796.687 503.833 796.3 C 503.837 795.911 504.382 793.593 504.382 793.593 L 504.147 791.656 L 503.085 794.095 L 502.676 795.896 L 501.875 798.08 L 500.195 798.317 L 499.277 799.467 C 499.277 799.467 498.49 800.492 499.265 800.37 C 500.039 800.251 501.333 800.01 501.333 800.01 L 500.933 801.166 L 499.886 802.443 L 499.379 801.663 L 498.468 802.297 L 497.426 803.187 L 498.35 801.65 C 498.35 801.65 497.458 800.606 497.591 800.221 C 497.725 799.835 498.254 798.939 498.254 798.939 C 498.254 798.939 499.172 797.791 499.049 797.27 C 498.928 796.753 497.403 794.668 497.403 794.668 C 497.403 794.668 497.765 796.738 497.371 797.25 C 496.979 797.761 496.332 797.753 496.199 798.139 C 496.065 798.525 494.632 799.539 494.632 799.539 L 494.359 800.698 L 494.342 802.117 L 493.429 802.88 L 493.405 804.945 L 494.032 806.63 L 495.193 806.647 L 495.465 805.618 C 495.465 805.618 495.714 806.267 495.707 806.783 C 495.702 807.299 495.293 809.101 495.293 809.101 L 494.018 807.664 C 494.018 807.664 493.358 808.689 492.855 807.648 C 492.353 806.609 492.228 806.223 492.228 806.223 L 491.439 807.373 C 491.439 807.373 490.775 808.784 490.77 809.3 C 490.764 809.816 491.268 810.724 491.264 811.114 C 491.258 811.501 492.031 811.64 492.029 812.027 C 492.024 812.414 491.881 813.573 491.881 813.573 L 490.826 815.497 L 491.587 815.9 Z" style=""/>
  <path fill="#FFFFCC" stroke="#2C689A" d="M 506.482 790.401 L 505.949 791.942 L 508.01 791.968 L 506.482 790.401 Z" style=""/>
  <path fill="#FFFFCC" stroke="#2C689A" d="M 511.493 813.304 L 513.954 812.56 L 514.498 810.371 L 512.69 810.48 L 511.124 811.88 L 511.493 813.304 Z" style=""/>
  <path fill="#FFFFCC" stroke="#2C689A" d="M 520.024 843.866 L 521.453 843.107 L 521.728 841.694 C 521.728 841.694 521.999 840.661 521.353 840.655 C 520.708 840.649 519.532 841.796 519.532 841.796 L 518.484 843.073 L 520.024 843.866 Z" style=""/>
  <path fill="#FFFFCC" stroke="#2C689A" d="M 325.511 1184.211 C 327.222 1176.148 327.072 1168.625 325.705 1160.545 C 325.113 1157.061 325.904 1153.145 326.379 1149.695 C 326.877 1146.051 330.573 1143.131 330.443 1139.709 C 330.382 1138.098 329.293 1135.798 329.642 1134.358 C 330.171 1132.188 331.194 1131.506 332.543 1129.751 C 333.757 1128.177 334.535 1125.995 336.146 1124.755 C 337.895 1123.41 338.399 1121.25 340.559 1120.465 C 344.731 1118.949 342.254 1112.467 340.166 1109.894 C 338.99 1108.447 333.044 1101.635 334.109 1100.173 C 335.813 1102.812 339.5 1104.536 341.916 1106.449 C 344.707 1108.661 345.578 1111.482 346.322 1114.777 C 349.324 1112.069 353.224 1110.438 356.707 1108.408 C 360.339 1106.287 363.667 1103.215 367.452 1101.512 C 371.191 1099.83 374.498 1096.225 378.244 1094.964 C 380.923 1094.062 382.159 1093.299 384.296 1091.435 C 385.783 1090.135 387.711 1089.495 389.149 1088.113 C 387.769 1086.813 386.105 1085.584 384.926 1084.101 C 383.066 1081.761 382.213 1079.166 380.644 1076.677 C 378.064 1072.582 370.352 1073.286 369.605 1068.431 C 372.862 1070.158 376.124 1071.892 379.382 1073.631 C 382.085 1075.077 386.364 1077.333 388.565 1079.503 C 390.148 1081.053 391.097 1083.335 392.616 1084.995 C 394.683 1087.245 394.909 1086.39 397.492 1085.252 C 398.906 1084.629 401.013 1085.783 401.937 1083.794 C 402.45 1082.691 402.059 1079.081 400.444 1079.303 C 400.735 1076.492 403.236 1073.973 404.668 1071.612 C 406.406 1073.703 406.949 1070.823 408.634 1070.973 C 410.237 1071.115 411.899 1074.809 413.569 1075.335 C 414.955 1075.771 416.512 1074.894 417.878 1075.046 C 420.006 1075.277 420.643 1076.548 421.625 1078.188 C 416.465 1079.733 409.399 1079.578 405.56 1083.327 C 409.9 1083.377 414.126 1082.061 418.442 1081.635 C 420.421 1081.443 422.13 1080.916 423.979 1080.152 C 425.78 1079.406 426.726 1077.974 428.692 1077.243 C 427.159 1079.021 425.542 1079.745 426.608 1081.938 C 427.181 1083.122 429.997 1082.846 431.023 1084.427 C 432.488 1086.688 439.081 1087.923 441.144 1086.172 C 438.375 1085.201 438.186 1082.374 437.818 1079.836 C 437.439 1077.235 438.777 1075.368 439.411 1072.902 C 440.316 1073.573 440.553 1074.497 440.834 1075.514 C 441.033 1076.234 440.124 1076.408 440.05 1077.037 C 439.962 1077.795 440.593 1077.785 440.288 1078.761 C 440.073 1079.446 440.016 1079.806 440.007 1080.525 C 439.982 1082.594 442.736 1088.136 445.337 1085.094 C 446.34 1083.92 447.25 1082.76 448.356 1081.682 C 448.741 1081.305 449.735 1081.313 449.982 1080.943 C 450.348 1080.389 450.123 1079.345 450.352 1078.712 C 450.947 1077.094 454.63 1071.581 450.438 1071.661 C 451.598 1070.032 450.995 1067.922 449.113 1067.425 C 447.376 1066.968 449.119 1064.615 446.4 1064.208 C 444.269 1063.888 443.789 1065.911 442.415 1063.37 C 441.736 1062.113 438.838 1061.05 438.551 1062.896 C 438.453 1063.522 437.33 1068.209 436.39 1066.495 C 435.906 1065.613 437.278 1062.8 436.795 1061.425 C 436.505 1060.59 433.508 1058.99 433.335 1060.187 C 433.08 1061.928 432.983 1064.829 430.729 1065.047 C 431.918 1063.612 432.468 1061.893 431.823 1060.069 C 430.577 1060.637 428.894 1061.903 427.611 1062.171 C 425.723 1062.567 424.334 1061.841 423.686 1064.1 C 423.295 1063.464 422.898 1062.825 422.507 1062.192 C 422.383 1062.878 422.259 1063.567 422.136 1064.252 C 420.757 1064.136 421.358 1062.901 421.435 1061.777 C 421.53 1060.386 423.144 1060.602 424.395 1060.322 C 425.549 1060.064 429.938 1059.307 430.38 1058.59 C 430.908 1057.733 429.417 1057.104 428.667 1056.802 C 427.057 1056.163 427.087 1055.865 426.478 1054.214 C 425.719 1052.175 425.32 1049.958 424.843 1047.839 C 423.667 1042.621 423.319 1038.247 424.046 1032.942 C 424.332 1030.863 424.166 1028.546 425.022 1026.616 C 426.457 1023.377 425.98 1023.305 422.823 1021.934 C 424.19 1021.95 426.511 1022.534 427.146 1021.23 C 427.996 1019.48 429.099 1017.441 427.718 1015.627 C 429.155 1016.834 430.796 1017.953 432.699 1016.378 C 433.477 1015.734 433.318 1013.913 434.113 1013.295 C 434.705 1012.838 436.127 1012.826 436.9 1012.546 C 438.822 1011.853 441.113 1011.18 442.775 1009.992 C 443.449 1009.511 444.595 1008.263 445.442 1008.272 C 446.033 1008.281 448.5 1008.651 448.707 1008.103 C 450.495 1003.372 452.73 1001.701 457.623 1000.489 C 460.188 999.854 459.966 996.859 461.352 994.874 C 462.877 992.692 463.195 991.993 463.999 989.4 C 464.757 986.966 465.537 986.092 467.494 984.593 C 468.356 983.931 469.177 978.377 469.698 976.97 C 471.333 972.576 473.159 968.301 475.095 964.025 C 475.717 962.652 477.088 964.173 476.291 962.193 C 475.772 960.902 476.122 960.507 476.628 959.179 C 477.343 957.31 477.436 954.912 478.697 953.33 C 479.765 951.992 482.149 949.601 483.767 948.949 C 485.515 948.246 487.893 949.853 489.772 950.312 C 490.343 948.912 489.719 948.318 488.866 947.355 C 488.025 946.405 488.326 945.669 488.403 944.386 C 488.484 942.973 488.547 942.835 489.506 941.796 C 490.278 940.959 491.879 941.24 492.474 940.538 C 492.688 940.285 492.677 937.734 492.738 937.319 C 492.917 936.082 493.701 936.009 494.773 935.493 C 496.123 934.834 495.16 934.284 496.004 933.357 C 496.791 932.489 498.082 931.838 499.126 931.331 C 501.083 930.381 501.067 927.482 502.791 926.989 C 506.025 926.059 504.028 924.382 504.056 921.903 C 504.103 918.32 506.309 912.622 509.144 910.262 C 513.05 907.003 517.25 903.12 519.651 898.631 C 520.777 896.532 521.603 895.434 522.207 893.045 C 522.395 892.301 523.415 891.254 524.131 890.985 C 524.533 890.833 527.544 889.241 525.351 888.809 C 522.709 888.284 521.859 888.069 520.026 886.068 C 517.815 883.653 518.099 881.695 517.946 878.502 C 517.888 877.313 517.955 873.951 516.946 873.179 C 515.56 872.12 514.549 871.712 513.79 870.056 C 513.322 869.04 511.827 868.883 511.219 867.97 C 508.749 864.263 509.71 861.228 510.573 857.045 C 510.86 857.316 511.324 857.417 511.598 857.705 C 510.9 855.067 517.023 845.4 519.048 849.923 C 518.119 850.699 514.817 852.494 515.648 853.623 C 516.462 854.736 518.73 852.925 519.694 852.176 C 520.313 851.697 521.179 851.495 521.899 851.21 C 523.038 850.756 522.598 849.579 523.059 848.935 C 524.287 847.216 526.444 846.684 526.47 844.347 C 526.484 843.343 528.379 841.21 529.21 840.742 C 530.471 840.026 533.056 840.662 533.164 839.082 C 533.412 835.423 534.866 832.712 534.403 829.074 C 533.7 830.142 532.935 831.493 531.76 832.087 C 531.35 832.293 528.087 833.072 527.896 833.386 C 526.685 835.382 531.438 835.697 532.276 834.084 C 532.326 837.207 529.897 836.826 527.728 837.972 C 526.348 838.704 525.727 840.144 524.319 840.826 C 522.741 841.593 524.82 843.451 522.99 844.037 C 521.443 844.53 520.964 844.948 519.236 845.05 C 517.114 845.175 518.307 844.293 516.478 843.747 C 514.84 843.255 512.203 847.274 511.626 844.544 C 511.098 845.199 509.605 847.221 508.75 847.349 C 508.003 847.459 505.331 846.173 504.463 845.957 C 503.68 845.765 502.162 848.22 501.007 847.382 C 499.627 846.383 502.878 845.263 503.505 845.156 C 504.967 844.909 505.73 844.029 506.8 843.196 C 507.352 842.766 509.441 844.199 509.643 842.907 C 509.881 841.383 511.14 842.483 512.172 842.101 C 513.506 841.606 513.698 839.594 515.277 841.495 C 515.293 841.061 515.648 840.643 515.678 840.209 C 517.298 841.486 517.259 839.485 518.282 838.563 C 518.758 839.125 519.455 839.54 520.202 839.746 C 520.355 838.525 521.111 835.575 519.603 834.927 C 516.886 833.754 518.11 832.741 518.896 830.697 C 519.124 831.413 520.351 836.36 521.947 834.414 C 522.392 833.873 521.862 833.885 521.453 833.359 C 520.5 832.138 521.888 832.91 522.096 832.799 C 522.366 832.657 523.318 832.903 523.619 832.926 C 524.262 832.98 523.806 832.092 524.044 831.662 C 524.238 831.316 523.696 830.921 523.995 830.436 C 524.356 829.846 524.848 829.345 525.297 828.82 C 526.098 827.881 525.786 826.486 526.31 825.751 C 526.767 825.114 528.766 824.453 528.798 823.986 C 528.915 822.393 529.219 820.802 529.228 819.204 C 527.246 820.956 528.652 823.083 526.41 824.309 C 525.611 824.744 524.385 825.016 523.732 825.589 C 523.073 826.165 522.845 827.988 522.012 827.809 C 521.38 827.674 518.631 827.248 518.955 825.919 C 519.245 824.711 521.233 825.323 521.104 824.335 C 520.792 821.942 524.062 821.953 522.652 819.125 C 522.042 820.164 520.968 822.991 519.13 822.178 C 517.276 821.363 519.483 818.364 516.977 818.795 C 518.149 820.035 517.093 822.252 516.916 823.829 C 516.133 822.793 515.521 821.51 514.239 821.086 C 514.134 822.721 514.028 824.353 513.922 825.987 C 513.112 824.373 511.858 822.916 512.303 821.127 C 512.699 819.534 512.909 817.938 513.007 816.298 C 509.649 816.886 510.857 819.002 510.488 821.817 C 507.125 821.597 508.499 821.015 507.824 818.042 C 507.816 819.393 506.928 819.73 505.797 820.103 C 504.725 820.461 505.032 821.313 504.548 822.13 C 504.212 822.694 502.554 823.786 503.497 824.511 C 504.127 824.998 505.201 825.935 506 825.627 C 507.133 825.19 508.763 822.514 510.206 823.873 C 512.778 826.304 508.111 826.928 507.352 827.717 C 507.476 827.588 509.904 831.685 510.362 832.264 C 509.346 831.561 508.052 830.183 507.167 831.718 C 506.811 832.335 506.688 834.18 505.709 833.862 C 505.237 833.708 504.604 833.906 504.148 834.123 C 504.391 832.244 504.335 830.265 505.761 828.853 C 504.628 829.118 502.141 829.351 502.124 830.854 C 502.117 831.43 502.287 831.79 501.807 832.101 C 500.957 832.653 501.41 833.373 501.316 833.441 C 500.179 834.304 498.244 833.557 498.066 835.21 C 497.996 835.87 499.204 837.283 499.189 838.307 C 499.176 839.344 504.06 838.362 504.999 838.262 C 506.345 838.117 506.493 839.119 507.327 837.3 C 507.748 836.392 509.429 836.244 510.311 836.391 C 510.069 836.799 510.147 837.395 509.906 837.806 C 511.703 837.873 513.434 837.624 515.203 837.349 C 512.891 839.608 509.873 840.145 506.644 840.783 C 505.469 841.016 495.968 841.654 500.026 843.574 C 498.631 844.526 495.348 844.584 494.664 845.744 C 495.652 846.084 496.506 846.777 497.05 847.668 C 494.076 847.631 491.269 846.887 488.284 846.701 C 490.066 846.343 491.27 845.501 492.784 844.517 C 493.238 844.226 494.806 844.219 495.449 843.969 C 496.102 843.715 496.275 842.189 496.478 841.577 C 496.859 840.431 497.693 837.626 496.495 836.647 C 495.357 835.718 492.326 836.727 491.833 837.966 C 491.842 837.431 491.539 834.851 492.09 834.679 C 493.069 834.374 494.616 835.255 494.976 834.219 C 495.481 832.765 496.862 834.728 496.887 832.706 C 496.89 832.433 498.847 831.963 499.314 831.173 C 497.194 829.956 498.9 829.105 500.393 829.121 C 501.486 829.135 501.504 827.233 503.49 827.438 C 501.543 826.853 496.87 825.394 495.21 827.015 C 493.237 828.942 493.314 831.831 489.845 831.571 C 491.737 829.724 491.773 828.657 491.806 826.019 C 491.814 825.337 492.214 825.179 492.711 824.692 C 493.439 823.983 492.231 824.05 492.524 823.516 C 493.087 822.484 493.404 821.918 494.784 821.652 C 495.15 826.14 500.013 821.228 502.029 820.194 C 501.4 819.785 500.777 819.376 500.151 818.966 C 501.632 818.076 505.46 818.483 503.457 815.91 C 504.771 816.264 505.421 815.663 504.852 814.378 C 506.419 814.061 508.033 817.736 507.866 814.156 C 507.821 813.186 506.452 811.402 505.193 812.09 C 503.764 812.869 500.684 814.056 500.506 815.952 C 500.253 818.591 498.801 818.65 496.365 818.923 C 496.481 817.489 496.616 816.065 496.59 814.624 C 495.075 815.552 494.866 818.112 493.711 818.671 C 491.912 819.541 490.069 820.031 488.463 821.207 C 486.36 822.745 485.392 822.088 485.026 824.909 C 484.678 827.582 487.37 825.751 488.208 824.846 C 490.541 826.57 486.532 827.56 485.487 828.186 C 484.842 828.573 482.072 831.927 481.903 830.217 C 481.78 828.973 482.097 826.079 480.282 825.78 C 479.084 825.585 474.769 829.82 474.762 830.379 C 474.789 830.252 474.834 830.129 474.895 830.016 C 473.633 831.249 473.555 832.855 472.439 833.946 C 471.319 835.038 467.502 837.452 468.482 833.895 C 466.549 835.466 463.959 836.778 462.225 838.473 C 460.829 839.835 461.025 841.386 459.928 842.611 C 457.375 845.455 453.339 845.792 453.14 850.054 C 449.671 849.432 446.959 847.146 444.256 844.958 C 445.121 844.566 445.984 844.174 446.852 843.782 C 445.1 841.248 443.444 838.724 441.862 836.086 C 440.396 833.634 440.113 830.343 439.616 827.548 C 439.038 824.297 438.608 822.146 440.45 819.351 C 441.619 817.582 441.34 816.112 441.363 814.122 C 441.386 812.075 442.271 810.07 442.299 807.941 C 440.894 808.39 439.614 808.698 438.159 808.922 C 439.179 806.941 439.23 805.848 439.257 803.599 C 439.277 801.773 437.057 800.865 435.485 801.96 C 432.298 804.18 430.092 805.251 426.152 804.02 C 422.859 802.986 420.83 799.7 418.513 797.327 C 418.131 796.936 416.385 796.047 416.298 795.577 C 416.18 794.99 417.34 794.329 417.113 793.687 C 416.462 791.852 415.97 790.267 415.698 788.344 C 417.869 789.01 417.444 783.787 418.012 782.178 C 419.065 779.193 420.405 777.344 423.577 777.257 C 426.696 777.171 429.33 777.494 432.347 778.188 C 434.124 778.596 438 781.713 439.198 780.545 C 441.667 778.14 435.38 776.576 434.091 776.009 C 431.383 774.82 429.482 774.111 426.354 774.672 C 422.193 775.42 411.239 773.725 410.127 779.675 C 410.586 779.68 412.413 779.419 412.707 779.706 C 412.843 779.839 412.809 782.299 412.673 782.456 C 411.047 784.379 408.732 781.159 408.692 784.475 C 408.673 786.19 408.423 788.226 406.575 788.665 C 404.349 789.193 404.957 786.123 405.076 784.602 C 401.731 787.593 397.873 789.415 394.523 792.411 C 392.973 793.798 390.703 794.599 389.278 795.936 C 388.679 796.5 388.242 798.03 387.566 798.773 C 386.911 799.492 384.871 799.335 383.929 799.458 C 382.826 799.602 381.579 803.303 380.818 804.217 C 379.462 805.85 377.505 807.633 376.841 809.721 C 375.262 814.691 375.456 819.049 375.872 824.214 C 376.242 828.823 375.974 833.557 376.019 838.182 C 376.036 840.036 376.777 841.953 376.649 843.787 C 376.495 845.984 375.184 848.068 374.982 850.276 C 374.828 851.97 375.258 855.554 373.971 856.752 C 371.808 858.762 370.313 860.422 368.698 862.88 C 366.218 866.653 365.158 871.239 362.845 875.11 C 360.406 879.195 357.273 882.551 353.7 885.617 C 352.218 886.889 350.667 888.069 349.163 889.312 C 347.166 890.961 345.123 889.741 342.701 890.179 C 340.283 890.615 339.146 891.33 336.61 891.211 C 334.206 891.093 332.637 891.589 333.035 894.526 C 333.362 896.946 333.662 898.908 333.304 901.309 C 332.977 903.509 331.209 905.181 330.911 907.294 C 330.245 912.066 330.281 917.008 328.025 921.251 C 325.77 925.492 327.567 930.049 326.849 934.682 C 326.112 939.438 323.644 942.713 322.269 947.227 C 321.723 949.016 319.426 950.105 319.412 951.434 C 319.382 953.888 318.052 955.709 317.51 958.061 C 317.065 959.995 316.594 961.875 315.891 963.732 C 315.54 964.666 315.292 966.185 314.596 966.917 C 313.763 967.796 312.824 968.543 312.378 969.677 C 311.487 971.933 310.534 973.64 309.136 975.63 C 307.908 977.384 306.141 978.542 304.918 980.246 C 303.484 982.241 302.029 984.033 300.378 985.857 C 299.017 987.363 298.053 990.166 296.805 991.909 C 295.51 993.726 295.215 995.638 293.921 997.069 C 292.685 998.435 290.855 1000.584 289.288 1001.437 C 287.397 1002.465 284.803 1003.321 283.35 1004.938 C 281.938 1006.512 280.642 1009.057 278.66 1009.732 C 276.191 1010.574 274.169 1011.193 271.59 1011.449 C 269.699 1011.636 268.067 1014.608 266.836 1015.721 C 265.414 1016.998 263.177 1018.684 261.456 1019.441 C 260.705 1019.769 259.002 1019.582 258.566 1020.309 C 257.872 1021.467 257.254 1022.373 256.336 1023.358 C 255.024 1024.763 255.26 1027.152 253.943 1028.814 C 253.377 1029.527 252.495 1030.091 251.813 1030.704 C 251.262 1031.198 250.711 1031.691 250.159 1032.186 C 249.726 1032.576 250.223 1033.224 249.929 1033.584 C 248.762 1034.993 246.581 1036.667 245.012 1037.638 C 243.577 1038.525 242.462 1041.74 241.412 1043.136 C 239.689 1045.428 238.63 1045.943 235.988 1047.105 C 235.134 1047.48 233.877 1047.368 232.954 1047.46 C 232.009 1047.554 230.716 1049.197 230.02 1049.793 C 226.157 1053.092 226.19 1057.882 223.632 1061.929 C 222.666 1063.456 222.665 1063.366 220.836 1063.342 C 220.022 1063.331 219.534 1064.942 219.082 1065.558 C 218.673 1066.115 217.902 1067.437 217.188 1067.427 C 215.593 1067.41 214.675 1067.138 213.511 1068.274 C 211.642 1070.098 210.187 1070.267 207.726 1070.235 C 205.632 1070.211 203.586 1072.235 201.952 1073.262 C 198.658 1075.334 196.07 1078.081 192.266 1079.924 C 190.981 1080.548 189.476 1083.498 188.478 1084.675 C 187.137 1086.264 186.047 1088.162 184.516 1089.562 C 183.218 1090.748 180.807 1092.872 182.166 1095.021 C 183.572 1097.243 185.766 1099.791 181.758 1098.88 C 178.578 1098.158 177.312 1094.538 174.248 1097.34 C 172.082 1099.323 170.877 1101.918 169.063 1104.238 C 167.633 1106.069 164.448 1105.953 162.212 1106.817 C 159.374 1107.91 157.845 1106.741 156.838 1104.026 C 153.037 1106.653 150.123 1108.555 145.435 1108.676 C 144.686 1108.696 143.938 1108.688 143.188 1108.676 C 141.278 1108.654 142.079 1108.696 141.107 1110.026 C 140.838 1110.392 141.291 1110.859 140.904 1111.253 C 140.421 1111.747 139.938 1112.24 139.456 1112.735 C 138.712 1113.496 138.752 1114.604 138.908 1115.557 C 138.983 1116.017 136.246 1118.783 135.8 1119.721 C 134.886 1121.648 133.35 1122.834 131.71 1124.159 C 130.215 1125.368 128.896 1126.602 127.808 1128.191 C 126.562 1130.013 124.726 1130.46 122.696 1131.228 C 123.448 1133.231 127.07 1132.231 127.038 1134.931 C 126.999 1138.112 124.783 1137.79 122.178 1137.76 C 119.026 1137.72 121.35 1140.331 119.344 1141.797 C 118.782 1142.211 116.511 1143.11 116.33 1143.551 C 115.931 1144.512 115.534 1145.727 114.853 1146.531 C 113.322 1148.341 112.111 1148.997 111.639 1151.634 C 111.546 1152.149 111.544 1152.89 111.327 1153.372 C 111.2 1153.653 110.22 1153.589 110.117 1153.871 C 109.777 1154.798 110.085 1156.394 110.073 1157.422 C 110.035 1160.579 109.392 1162.065 112.153 1163.888 C 113.941 1165.068 116.978 1167.37 115.598 1169.939 C 114.638 1166.941 114.583 1166.881 111.633 1165.857 C 108.56 1164.791 108.707 1164.57 107.959 1161.415 C 106.671 1162.291 106.352 1163.73 105.34 1164.48 C 104.981 1164.746 104.196 1164.312 103.748 1164.604 C 103.142 1164.996 102.435 1165.346 101.883 1165.813 C 101.495 1166.14 99.095 1168.414 99.092 1168.877 C 99.082 1170.239 101.362 1170.262 100.259 1171.99 C 99.104 1171.121 98.231 1169.749 96.908 1170.543 C 95.195 1171.568 95.264 1172.157 94.777 1174.116 C 94.247 1176.253 100.217 1178.258 98.938 1181.439 C 98.098 1180.494 96.299 1177.965 94.909 1177.948 C 92.674 1177.921 90.245 1178.436 92.23 1181.184 C 92.993 1182.239 96.315 1183.519 94.149 1185.21 C 92.12 1186.794 92.866 1187.974 93.15 1190.488 C 91.345 1189.006 91.466 1188.947 91.784 1186.626 C 92.104 1184.298 92.787 1184.123 90.585 1182.317 C 88.489 1180.598 83.854 1183.978 83.221 1186.237 C 82.706 1188.074 84.85 1193.441 85.785 1194.825 C 86.274 1195.55 88.905 1198.441 88.741 1199.208 C 88.502 1200.339 86 1201.007 85.265 1202.09 C 86.121 1199.547 86.124 1198.081 83.083 1197.588 C 85.43 1194.506 83.058 1191.06 80.78 1188.956 C 79.791 1190.334 79.698 1190.246 78.37 1190.781 C 75.786 1191.82 77.801 1192.369 76.349 1193.791 C 75.937 1194.191 75.357 1194.608 75.027 1195.08 C 74.635 1195.642 75.601 1196.204 74.822 1196.677 C 73.259 1197.628 74.194 1198.625 72.461 1199.559 C 69.591 1201.109 70.29 1203.797 73.441 1203.833 C 74.752 1203.85 75.356 1205.408 76.779 1205.423 C 78.488 1205.442 79.406 1205.337 80.737 1206.5 C 77.223 1207.464 72.248 1206.097 68.983 1204.746 C 67.823 1204.266 68.159 1209.118 68.886 1209.863 C 70.976 1212.004 72.335 1211.324 75.166 1211.769 C 74.439 1212.565 72.104 1212.421 71.968 1212.935 C 71.594 1214.359 72.065 1215.199 73.396 1215.881 C 72.185 1218.544 67.732 1210.49 66.768 1209.087 C 65.923 1209.827 62.615 1212.611 65.511 1213.373 C 67.628 1213.933 67.449 1218.204 70.086 1219.109 C 67.298 1220.16 64.547 1212.318 62.226 1214.537 C 60.868 1215.839 62.186 1222.312 62.725 1223.803 C 63.259 1225.284 63.793 1226.594 64.644 1227.905 C 65.869 1229.791 66.813 1228.944 68.981 1228.523 C 70.173 1228.29 71.505 1226.319 72.253 1227.416 C 73.089 1228.644 74.76 1230.004 73.891 1231.546 C 72.118 1229.894 70.901 1229.275 68.416 1230.027 C 67.198 1230.396 66.193 1230.594 65.213 1231.391 C 64.785 1231.74 64.461 1233.749 64.972 1233.925 C 69.919 1235.644 71.33 1239.383 73.395 1243.931 C 71.156 1244.142 68.729 1238.588 67.091 1237.062 C 64.716 1234.849 61.957 1233.385 59.614 1231.203 C 60.46 1231.216 63.002 1231.715 63.105 1230.799 C 63.28 1229.244 62.727 1228.522 62.003 1227.12 C 60.39 1224.007 60.245 1221.852 60.288 1218.306 C 57.582 1218.041 57.785 1221.372 56.441 1223.333 C 55.201 1225.147 55.41 1224.465 56.065 1225.996 C 56.434 1226.862 58.467 1228.227 58.435 1229.122 C 58.397 1230.159 57.014 1230.821 56.237 1230.682 C 54.265 1230.325 54.119 1229.913 53.261 1231.713 C 52.084 1234.183 50.964 1236.66 49.881 1239.171 C 51.563 1239.731 53.686 1241.206 55.041 1239.405 C 55.434 1240.633 58.184 1245.301 59.944 1242.897 C 60.689 1241.883 61.085 1240.734 62.368 1240.607 C 63.618 1240.486 65.009 1239.861 65.166 1241.59 C 64.429 1241.582 62.729 1241.205 62.223 1241.771 C 61.653 1242.406 60.503 1244.335 59.794 1244.624 C 57.488 1245.567 55.59 1242.896 53.8 1242.312 C 47.72 1240.334 47.478 1248.327 48.175 1252.052 C 45.306 1251.404 46.059 1256.223 46.037 1258.049 C 47.031 1257.964 48.879 1258.19 49.688 1257.597 C 51.293 1256.423 52.555 1255.203 54.677 1255.23 C 56.048 1255.247 58.891 1253.041 60.014 1252.259 C 61.82 1251.003 63.51 1249.66 65.087 1248.126 C 65.053 1252.029 62.035 1252.481 58.988 1254.418 C 60.824 1254.498 62.656 1254.575 64.491 1254.657 C 62.59 1255.054 60.897 1255.491 59.081 1256.173 C 57.534 1256.752 56.124 1256.19 54.659 1257.056 C 52.934 1258.077 51.574 1258.933 50.147 1260.325 C 49.099 1261.349 50.352 1264.399 50.419 1265.67 C 52.626 1265.235 55.161 1264.813 56.986 1263.341 C 57.988 1262.533 57.591 1261.907 58.907 1261.407 C 60.46 1260.816 62.016 1260.228 63.57 1259.635 C 62.917 1262.513 61.588 1262.912 58.943 1263.986 C 56.691 1264.902 51.964 1265.907 50.91 1268.199 C 49.128 1272.08 54.546 1269.626 55.645 1269.709 C 58.486 1269.922 61.519 1269.851 64.299 1270.312 C 61.289 1270.981 59.135 1271.887 58.902 1275.408 C 57.446 1274.999 54.484 1273.899 53.09 1274.873 C 51.026 1276.31 49.681 1276.085 47.467 1276.906 C 46.429 1277.291 45.622 1277.378 45.043 1278.316 C 44.273 1279.565 44.325 1280.425 42.932 1279.771 C 40.786 1278.767 38.785 1279.104 36.559 1279.71 C 34.287 1280.331 33.816 1283.561 33.572 1285.452 C 33.126 1288.906 34.127 1289.48 35.319 1292.408 C 36.013 1294.119 35.334 1297.277 36.079 1298.53 C 37.2 1300.421 39.891 1297.776 41.435 1296.703 C 40.773 1299.265 43.269 1298.318 43.586 1296.412 C 43.875 1294.675 45.428 1292.958 46.238 1291.28 C 46.874 1289.962 46.96 1288.449 47.573 1287.144 C 48.422 1285.34 48.772 1285.301 50.704 1284.429 C 49.053 1286.72 48.436 1289.803 47.508 1292.48 C 50.594 1293.575 52.348 1292.736 54.753 1291.019 C 56.007 1293.412 48.33 1294.801 46.681 1295.927 C 44.603 1297.343 45.441 1298.411 45.169 1300.711 C 44.963 1302.463 44.274 1304.192 43.73 1305.857 C 44.707 1305.193 45.683 1304.525 46.659 1303.86 C 47.542 1303.26 48.433 1304.406 49.086 1304.03 C 49.66 1303.702 49.98 1301.842 50.829 1301.222 C 51.672 1300.606 52.379 1299.797 53.124 1299.068 C 54.296 1297.926 54.667 1298.025 54.689 1296.214 C 54.701 1295.185 55.277 1294.505 56.189 1294.237 C 59.839 1293.165 60.858 1290.788 63.732 1288.376 C 62.959 1289.985 62.347 1292.106 61.261 1293.509 C 60.611 1294.349 60.69 1294.842 59.625 1294.956 C 58.942 1295.03 56.671 1294.889 56.415 1295.859 C 56.05 1297.247 55.535 1297.427 56.208 1298.698 C 56.741 1299.702 57.256 1300.691 55.808 1300.671 C 55.943 1300.673 52.875 1304.585 52.094 1305.221 C 50.663 1306.383 50.66 1308.869 49.164 1309.276 C 46.531 1309.994 48.713 1311.952 49.662 1313.414 C 51.009 1315.487 51.66 1315.072 53.849 1315.1 C 55.984 1315.126 57.39 1315.959 59.433 1316.374 C 58.82 1313.871 64.71 1314.893 66.307 1314.909 C 68.54 1314.937 71.002 1315.314 73.208 1315.681 C 76.452 1316.22 79.357 1316.618 82.659 1316.655 C 84.446 1316.677 85.042 1316.884 86.341 1315.755 C 87.42 1314.819 89.501 1314.815 90.883 1314.906 C 94.895 1315.179 93.461 1313.59 93.79 1310.665 C 94.139 1307.562 96.988 1306.347 99.597 1305.434 C 101.599 1304.734 104.912 1306.545 106.845 1307.25 C 108.172 1307.733 108.145 1309.102 109.519 1308.21 C 110.757 1307.406 111.298 1306.052 112.056 1304.798 C 112.737 1306.136 110.549 1310.107 111.137 1310.562 C 112.834 1311.867 114.466 1313.052 116.185 1314.296 C 119.517 1316.708 115.588 1317.409 115.274 1319.43 C 115 1321.191 116.619 1321.622 117.787 1322.551 C 118.502 1323.12 121.72 1326.141 122.812 1325.748 C 123.401 1325.535 123.449 1323.715 124.044 1323.523 C 124.791 1323.285 126.15 1325.212 126.949 1325.107 C 128.749 1324.874 129.279 1322.553 131.689 1322.583 C 133.605 1322.604 135.398 1323.898 137.107 1324.713 C 136.789 1321.627 137.965 1319.293 141.577 1320.344 C 145.444 1321.471 147.166 1323.819 149.292 1327.094 C 150.173 1328.452 152.727 1335.764 154.153 1331.213 C 154.3 1330.744 154.092 1330.178 154.252 1329.74 C 154.486 1329.102 155.26 1329.382 155.344 1328.539 C 155.524 1326.709 155.702 1324.878 155.882 1323.047 C 156.519 1325.435 156.872 1329.966 159.397 1331.177 C 157.845 1332.691 156.579 1333.844 154.705 1334.906 C 157.005 1335.789 162.453 1338.754 163.823 1335.018 C 164.206 1333.975 163.071 1331.222 164.513 1331.24 C 166.438 1331.264 168.316 1331.312 170.232 1331.483 C 169.351 1333.071 167.099 1337.325 170.931 1337.341 C 173.174 1337.35 174.269 1336.917 176.139 1335.676 C 177.389 1334.844 177.098 1332.444 177.798 1331.919 C 178.442 1331.437 180.369 1331.638 181.262 1331.473 C 183.909 1330.991 182.743 1334.133 182.432 1335.596 C 181.921 1338.002 186.244 1337.796 187.349 1339.932 C 188.126 1341.433 188.468 1342.507 188.78 1344.175 C 188.924 1344.939 192.014 1344.592 192.738 1344.552 C 195.046 1344.426 198.565 1345.523 200.596 1344.835 C 202.208 1344.289 207.859 1344.033 207.435 1341.929 C 207.203 1340.78 206.948 1339.289 208.475 1338.751 C 209.523 1338.383 209.224 1342.609 209.151 1343.143 C 210.26 1345.319 213.121 1342.838 214.141 1341.776 C 216.637 1339.174 216.741 1341.052 219.847 1340.865 C 221.736 1340.747 224.309 1339.077 225.97 1338.311 C 226.888 1337.885 226.601 1337.25 226.614 1336.287 C 226.631 1334.841 227.385 1334.962 228.701 1334.431 C 228.383 1334.351 227.917 1334.308 227.663 1334.083 C 227.973 1334.355 230.594 1333.896 231.464 1333.973 C 233.423 1334.149 233.887 1334.603 235.393 1335.887 C 235.134 1332.23 237.126 1332.517 239.587 1330.604 C 240.621 1329.803 241.563 1329.056 241.988 1327.832 C 242.731 1325.691 242.188 1326 240.17 1325.105 C 241.793 1324.126 251.972 1324.573 247.622 1319.474 C 243.473 1314.611 250.004 1312.984 252.911 1310.462 C 254.594 1309.001 255.243 1307.298 257.182 1306.04 C 259.107 1304.792 260.161 1303.137 261.837 1301.622 C 265.275 1298.507 270.572 1295.709 271.05 1290.724 C 271.489 1286.124 272.086 1282.662 275.035 1278.827 C 276.727 1276.627 277.743 1275.406 280.105 1274.004 C 281.043 1273.444 282.059 1273.51 283.147 1273.409 C 284.513 1273.283 285.651 1272.528 286.88 1271.932 C 290.833 1270.012 296.117 1270.883 299.876 1269.05 C 300.387 1268.801 300.246 1268.221 300.898 1268.178 C 301.358 1268.145 302.221 1268.248 302.642 1268.055 C 303.229 1267.785 304.621 1266.992 304.466 1266.342 C 304.225 1265.324 303.266 1264.799 303.037 1263.93 C 302.759 1262.879 303.431 1261.297 303.769 1260.324 C 303.95 1259.812 304.126 1259.297 304.304 1258.781 C 303.23 1259.724 302.385 1260.398 301.103 1261.015 C 300.486 1261.315 299.758 1261 299.089 1261.271 C 298.768 1261.4 298.712 1263.197 298.399 1263.732 C 296.531 1266.909 293.747 1267.551 290.422 1268.248 C 290.887 1266.234 293.096 1266.472 294.074 1265.024 C 294.84 1263.888 294.043 1262.543 295.997 1262.638 C 293.028 1261.658 297.341 1260.067 298.666 1259.556 C 301.109 1258.614 301.586 1256.915 298.694 1256.881 C 296.263 1256.851 296.447 1254.545 293.81 1254.977 C 292.293 1255.227 295.949 1251.008 295.968 1250.941 C 297.525 1249.008 297.929 1248.267 298.268 1245.807 C 294.824 1245.927 299.768 1243.653 300.703 1243.277 C 300.588 1243.325 300.48 1243.378 300.363 1243.424 C 302.122 1242.243 302.169 1240.948 302.567 1239.04 C 303.011 1236.912 303.455 1236.782 304.831 1235.133 C 305.961 1233.779 306.88 1232.172 307.972 1230.767 C 308.216 1230.454 306.72 1228.787 306.931 1227.855 C 307.594 1224.944 310.422 1223.079 310.455 1220.468 C 310.466 1219.563 308.457 1218.643 308.082 1217.534 C 307.724 1216.479 308.124 1215.036 308.301 1214.011 C 308.861 1210.776 310.126 1208.42 311.095 1205.329 C 311.509 1204.014 312.059 1202.69 312.924 1201.589 C 313.638 1200.684 315.635 1199.699 315.741 1198.522 C 316.165 1193.631 322.855 1188.442 325.511 1184.211" style=""/>
  <path fill="#FFFFCC" stroke="#2C689A" d="M 49.479 1271.178 C 49.529 1267.088 48.738 1259.292 42.78 1261.339 C 41.277 1261.855 40.844 1262.15 39.767 1263.315 C 38.781 1264.384 38.164 1264.581 37.46 1265.945 C 36.657 1267.505 35.969 1267.801 35.946 1269.722 C 35.923 1271.613 34.442 1272.907 33.267 1274.25 C 34.73 1276.14 36.749 1273.333 37.506 1272.062 C 38.781 1269.92 38.839 1268.878 38.869 1266.399 C 39.174 1267.686 39.232 1269.783 40.071 1270.812 C 40.722 1271.612 41.042 1271.703 42.03 1272.046 C 43.558 1272.576 41.824 1273.286 42.558 1274.188 C 42.846 1274.542 44.41 1274.448 44.631 1274.073 C 45.393 1272.774 45.782 1273.928 46.528 1273.204 C 48.231 1271.547 44.335 1270.636 46.925 1268.906 C 47.755 1269.547 47.465 1270.092 47.458 1270.634 C 47.455 1271.012 49.184 1271.175 49.479 1271.178" style=""/>
  <path fill="#FFFFCC" stroke="#2C689A" d="M 38.598 1274.486 L 37.218 1274.812 L 35.822 1276.343 L 37.191 1277.048 C 37.191 1277.048 38.917 1276.554 39.434 1276.557 C 39.949 1276.564 41.671 1276.413 41.671 1276.413 L 39.971 1274.843 L 38.598 1274.486 Z" style=""/>
  <path fill="#FFFFCC" stroke="#2C689A" d="M 46.992 1305.732 L 48.54 1305.751 L 49.39 1306.622 L 48.173 1307.638 L 47.137 1307.968 L 46.113 1307.27 L 46.992 1305.732 Z" style=""/>
  <path fill="#FFFFCC" stroke="#2C689A" d="M 170.572 1359.381 C 170.579 1358.866 170.589 1358.005 171.112 1357.496 C 171.633 1356.985 171.826 1355.266 171.663 1354.576 C 171.499 1353.886 170.651 1352.847 170.651 1352.847 L 169.078 1354.892 L 167.352 1355.386 C 167.352 1355.386 166.468 1357.272 167.329 1357.279 C 168.189 1357.29 169.221 1357.299 169.221 1357.299 L 170.572 1359.381 Z" style=""/>
  <path fill="#FFFFCC" stroke="#2C689A" d="M 126.068 1354.192 C 124.635 1353.953 123.708 1353.843 122.29 1354.109 C 121.633 1354.228 121.214 1356.59 121.1 1357.32 C 120.877 1358.765 120.503 1360.235 120.699 1361.704 C 120.915 1363.322 122.874 1365.061 123.667 1366.551 C 125.019 1369.089 125.284 1372.028 124.441 1374.755 C 123.977 1376.256 123.044 1376.267 121.824 1377.159 C 120.897 1377.833 119.644 1376.313 119.098 1375.439 C 119.073 1377.468 119.612 1379.106 120.794 1380.806 C 121.467 1381.774 123.173 1383.582 121.967 1384.289 C 121.173 1384.75 119.887 1384.436 118.986 1384.558 C 116.361 1384.915 115.577 1386.265 114.496 1388.53 C 114.097 1389.368 114.982 1389.91 115.297 1390.704 C 115.722 1391.774 115.787 1392.947 115.688 1394.065 C 115.574 1395.341 115.165 1395.682 114.327 1396.683 C 113.806 1397.306 112.511 1397.537 112.216 1398.219 C 111.965 1398.802 111.714 1399.385 111.462 1399.969 C 111.303 1400.336 110.56 1399.739 110.19 1400.279 C 109.094 1401.882 109.118 1403.58 109.095 1405.428 C 109.082 1406.51 114.356 1407.398 115.097 1407.051 C 115.619 1406.803 116.822 1404.287 116.408 1403.866 C 115.643 1403.079 114.195 1402.27 114.826 1401.024 C 115.764 1402.105 115.813 1402.814 117.084 1402.044 C 118.512 1401.176 117.501 1400.512 117.945 1399.34 C 118.33 1398.323 120.531 1397.323 121.185 1396.428 C 121.965 1395.365 123.228 1395.502 124.532 1395.289 C 124.487 1395.678 124.751 1396.11 124.689 1396.498 C 126.614 1395.875 133.146 1398.213 134.244 1395.736 C 134.756 1394.579 135.728 1393.835 136.179 1392.679 C 136.765 1391.175 139.348 1391.051 140.765 1390.498 C 141.364 1390.267 144.744 1389.766 144.927 1389.46 C 145.433 1388.618 148.537 1389.267 149.59 1388.814 C 150.98 1388.217 150.611 1387.402 150.628 1385.986 C 150.632 1385.663 153.429 1385.846 154.074 1385.667 C 153.394 1385.269 152.18 1384.859 151.681 1384.262 C 150.456 1382.794 151.563 1383.053 153.073 1383.074 C 152.03 1381.118 155.524 1380.882 153.536 1378.845 C 152.547 1377.831 151.258 1375.998 149.74 1375.979 C 147.994 1375.958 147.588 1377.399 145.897 1377.942 C 145.65 1378.021 144.279 1377.666 144.194 1377.457 C 143.711 1376.269 146.292 1376.021 146.795 1375.768 C 145.614 1375.227 144.654 1374.941 143.378 1374.687 C 142.072 1374.426 141.423 1373.066 140.294 1372.763 C 138.968 1372.41 137.912 1373.847 137.065 1374.619 C 136.725 1374.928 135.906 1376.721 135.648 1376.619 C 134.948 1376.338 134.247 1376.056 133.546 1375.781 C 134.506 1374.687 136.13 1373.811 136.594 1372.471 C 137.196 1370.738 137.076 1369.264 137.948 1367.575 C 139.162 1369.131 139.689 1370.739 141.866 1370.722 C 141.667 1369.464 146.915 1370.093 147.763 1370.106 C 148.539 1370.116 147.808 1366.568 147.422 1366.657 C 145.123 1367.203 144.953 1366.173 143.477 1364.81 C 142.081 1363.525 140.676 1362.273 139.232 1361.05 C 138.351 1360.304 138.266 1360.079 137.818 1358.819 C 137.635 1358.303 137.995 1356.829 137.828 1356.643 C 136.681 1355.363 135.531 1354.172 134.273 1352.998 C 133.561 1352.335 130.847 1351.837 129.837 1351.357 C 127.912 1350.45 126.931 1353.137 126.068 1354.192" style=""/>
  <path fill="#FFFFCC" stroke="#2C689A" d="M 117.022 1362.341 L 115.642 1362.496 L 113.766 1361.095 L 113.627 1358.512 L 115.867 1358.196 L 117.392 1360.107 L 117.022 1362.341 Z" style=""/>
  <path fill="#FFFFCC" stroke="#2C689A" d="M 106.358 1404.197 L 105.321 1404.527 L 104.996 1402.977 L 105.878 1401.264 C 105.878 1401.264 108.112 1401.465 107.422 1401.626 C 106.731 1401.791 106.358 1404.197 106.358 1404.197 Z" style=""/>
  <path fill="#BFCAE2" stroke="#2C689A" d="M 258.807 1108.976 C 258.573 1106.315 257.93 1103.764 257.632 1101.114 C 257.4 1099.063 258.529 1094.662 260.903 1097.708 C 261.341 1098.271 262.93 1099.833 262.729 1100.411 C 262.159 1102.056 262.514 1103.011 262.889 1104.733 C 263.185 1106.093 262.713 1107.099 262.226 1108.351 C 262.064 1108.767 259.362 1108.89 258.807 1108.976" style=""/>
  <path fill="#BFCAE2" stroke="#2C689A" d="M 239.235 1105.383 C 237.829 1107.843 236.858 1109.751 236.824 1112.602 C 236.784 1115.825 238.67 1117.671 241.277 1119.279 C 241.787 1119.592 242.167 1119.504 242.444 1119.173 C 243.366 1118.066 243.141 1114.231 242.741 1113.405 C 241.437 1110.718 240.209 1108.218 239.235 1105.383" style=""/>
  <path fill="#BFCAE2" stroke="#2C689A" d="M 277.099 1090.615 C 275.977 1088.888 276.306 1088.01 276.426 1086.044 C 276.544 1084.085 276.685 1082.129 276.71 1080.168 C 276.722 1079.215 276.497 1078.73 276.114 1077.835 C 275.569 1076.566 276.132 1076.571 277.183 1075.691 C 278.793 1074.346 281.527 1072.691 282.087 1073.381 C 282.905 1074.386 282.587 1074.737 282.286 1076.021 C 281.875 1077.772 281.767 1079.589 281.602 1081.377 C 281.438 1083.164 281.702 1085.592 281.272 1087.31 C 280.64 1089.817 279.297 1090.204 277.099 1090.615" style=""/>
  <path fill="#BFCAE2" stroke="#2C689A" d="M 170.66 1195.424 C 167.069 1193.725 163.882 1194.094 160.149 1195.229 C 158.739 1195.655 156.894 1197.072 155.547 1196.497 C 154.69 1196.132 153.767 1196.119 153.699 1195.122 C 153.626 1194.057 153.765 1193.025 153.149 1192.162 C 151.571 1189.948 151.545 1188.114 151.19 1185.465 C 150.936 1183.578 150.199 1182.384 150.142 1180.345 C 150.072 1177.854 150.058 1177.379 148.84 1175.423 C 147.777 1173.722 147.708 1171.708 145.822 1170.848 C 143.905 1169.971 144.422 1173.185 144.87 1174.304 C 145.711 1176.4 146.256 1177.911 146.329 1180.202 C 146.402 1182.501 146.538 1183.634 147.35 1185.805 C 147.959 1187.437 148.669 1189.31 148.648 1191.061 C 148.626 1192.889 147.575 1194.28 147.703 1196.155 C 147.824 1197.911 149.73 1200.46 151.093 1201.509 C 154.121 1203.841 159.092 1202.334 162.494 1201.397 C 164.084 1200.958 169.349 1199.548 170.429 1201.847 C 171.72 1204.594 170.634 1206.237 168.979 1208.291 C 167.265 1210.414 168.294 1212.935 169.866 1215.266 C 171.184 1217.22 171.133 1219.919 171.556 1222.252 C 173.886 1221.594 173.073 1218.428 173.099 1216.369 C 173.124 1214.282 173.229 1212.222 172.969 1210.153 C 172.736 1208.309 173.861 1204.298 172.891 1202.86 C 171.247 1200.416 171.712 1198.047 170.66 1195.424" style=""/>
  <path fill="#BFCAE2" stroke="#2C689A" d="M 193.244 1130.372 C 193.511 1134.128 193.827 1137.512 192.855 1141.208 C 192.701 1141.793 192.386 1143.781 191.532 1143.774 C 190.948 1143.766 188.942 1144.592 188.934 1145.243 C 188.905 1147.573 188.494 1148.893 187.627 1151.065 C 187.049 1152.515 187.153 1154.662 187.007 1156.195 C 186.835 1157.99 186.587 1159.871 188.421 1160.197 C 191.997 1160.837 195.403 1161.917 199.047 1162.446 C 199.3 1160.202 199.298 1159.808 198.061 1157.902 C 196.844 1156.028 196.347 1154.214 196.228 1152.021 C 196.139 1150.391 196.176 1148.924 196.312 1147.296 C 196.461 1145.517 197.661 1144.462 198.255 1142.82 C 198.764 1141.417 200.466 1134.894 199.504 1133.91 C 199.005 1133.399 198.234 1132.845 197.869 1132.234 C 197.426 1131.497 198.167 1131.174 197.378 1130.527 C 195.248 1128.783 195.448 1128.76 193.244 1130.372" style=""/>
  <path fill="#BFCAE2" stroke="#2C689A" d="M 208.489 1129.009 C 207.578 1130.453 201.868 1139.337 202.878 1140.14 C 203.692 1140.788 204.963 1141.18 204.38 1142.17 C 203.468 1143.72 203.386 1144.937 203.261 1146.688 C 203.077 1149.257 203.31 1151.671 203.534 1154.241 C 206.488 1153.638 207.468 1150.983 207.22 1148.348 C 207.06 1146.646 205.565 1141.736 208.851 1141.657 C 208.533 1140.999 206.822 1138.438 207.186 1137.868 C 208.531 1135.774 208.719 1135.977 211.242 1136.007 C 209.982 1133.406 210.27 1131.125 210.306 1128.253 C 209.701 1128.51 209.095 1128.76 208.489 1129.009" style=""/>
  <path fill="#BFCAE2" stroke="#2C689A" d="M 94.571 1242.219 L 94.546 1244.283 L 92.487 1243.74 L 90.693 1242.686 L 90.186 1241.907 L 88.635 1242.145 L 87.345 1242.129 L 88.141 1240.333 L 88.159 1238.784 L 89.971 1238.29 L 91.263 1238.307 L 92.823 1237.291 L 94.368 1237.569 L 95.391 1238.358 L 96.681 1238.375 L 97.72 1237.871 L 98.22 1239.169 L 96.917 1240.184 L 94.571 1242.219" style=""/>
  <path fill="#BFCAE2" stroke="#2C689A" d="M 108.366 1232.837 C 108.578 1231.12 108.729 1230.637 107.797 1229.2 C 107.359 1228.529 105.63 1227.126 104.838 1227.116 C 101 1227.068 99.068 1226.584 96.085 1223.91 C 97.741 1223.931 99.398 1223.952 101.053 1223.971 C 102.913 1223.991 104.779 1224.942 105.935 1223.532 C 107.344 1221.812 107.378 1220.494 107.677 1218.328 C 107.955 1216.304 107.805 1215.644 106.158 1214.405 C 104.514 1213.167 102.959 1211.871 101.131 1210.929 C 99.397 1210.037 97.386 1211.844 97.561 1208.699 C 97.617 1207.679 99.248 1207.801 98.104 1206.18 C 97.608 1205.479 96.714 1204.785 96.586 1203.953 C 96.297 1202.081 95.586 1200.982 95.957 1199.13 C 96.978 1201.598 97.943 1203.529 99.489 1205.713 C 101.425 1208.443 104.053 1208.796 106.974 1210.09 C 107.581 1210.359 110.141 1211.006 110.214 1210.417 C 110.347 1209.339 110.966 1207.337 110.753 1206.278 C 110.526 1205.143 109.168 1203.607 108.345 1202.764 C 107.399 1201.795 107.544 1200.282 106.713 1199.001 C 108.393 1199.018 109.293 1198.595 110.148 1200.059 C 111.063 1201.627 111.41 1201.769 113.123 1202.433 C 113.361 1200.514 113.001 1200.051 112.658 1198.296 C 112.271 1196.323 113.22 1195.708 114.512 1194.447 C 116.86 1192.156 116.845 1188.719 117.917 1185.626 C 118.553 1183.795 119.525 1188.224 119.548 1188.342 C 119.793 1189.653 119.932 1191.571 119.08 1192.641 C 117.331 1194.835 114.754 1197.857 116.113 1200.663 C 117.177 1202.855 115.653 1206.637 115.623 1209.126 C 115.616 1209.701 116.27 1213.426 116.183 1213.553 C 114.885 1215.449 115.261 1216.533 112.902 1217.089 C 112.441 1217.198 112.042 1220.75 112.119 1221.261 C 112.356 1222.798 113.894 1223.942 113.874 1225.567 C 113.84 1228.443 110.697 1231.131 108.366 1232.837" style=""/>
  
  <path fill="#BFCAE2" stroke="#2C689A" d="M 84.946 1290.625 C 84.967 1288.94 84.883 1287.307 84.763 1285.633 C 84.679 1284.434 82.431 1282.561 81.603 1281.712 C 80.571 1280.655 78.089 1281.457 78.111 1279.7 C 78.131 1278.104 79.751 1276.881 81.286 1276.9 C 83.261 1276.922 83.698 1278.415 85.411 1279.424 C 87.096 1280.416 86.448 1282.457 88.654 1282.927 C 90.097 1283.235 91.059 1285.061 90.262 1286.608 C 88.799 1289.448 88.062 1290.663 84.946 1290.625" style=""/>
  
 
  
  <path fill="#BFCAE2" stroke="#2C689A" d="M 635.899 617.967 C 634.598 612.523 645.132 613.706 648.124 614.869 C 651.04 616.004 652.852 617.007 656.043 617.366 C 659.192 617.721 658.336 621.776 658.308 623.895 C 658.223 631.081 649.822 628.645 645.938 631.487 C 641.481 634.745 638.827 641.109 632.371 639.178 C 633.746 636.507 634.502 634.786 634.87 631.825 C 635.118 629.82 636.997 628.59 637.027 626.086 C 637.081 621.621 633.231 625.357 632.914 623.272 C 632.551 620.944 633.316 618.688 635.899 617.967" style=""/>
  <path fill="#BFCAE2" stroke="#2C689A" d="M 670.164 556.667 L 669.296 560.744 L 669.251 564.422 L 671.686 565.678 L 673.338 564.47 L 674.185 562.028 L 675.026 559.997 L 674.243 557.124 L 672.219 555.467 L 670.164 556.667 Z" style=""/>
  <path fill="#BFCAE2" stroke="#2C689A" d="M 708.1 629.885 L 708.952 627.035 L 711.03 624.199 L 713.896 623.826 L 718.381 624.696 L 719.991 626.759 L 716.707 627.946 L 713.437 627.906 L 712.6 629.528 L 710.133 630.725 L 708.1 629.885 Z" style=""/>
  <path fill="#BFCAE2" stroke="#2C689A" d="M 603.905 837.358 C 602.627 840.647 602.771 844.794 600.513 847.36 C 598.729 849.392 594.4 854.739 591.1 853.085 C 589.337 852.203 589.423 850.181 590.223 848.402 C 591.297 846.024 592.985 846.23 594.937 845.188 C 598.213 843.443 601.186 839.807 603.905 837.358" style=""/>
</svg>