<?xml version="1.0" encoding="utf-8"?>
<svg width="1000" height="1000" viewBox="0 0 1000 1000" xmlns="http://www.w3.org/2000/svg">
  <path d="M50 50L250 700L450 50M125 250L375 250" stroke="red" fill="pink"/>
  <path d="M 71.899 50 C 71.899 116.006 156.961 472.563 180.935 532.315 C 200.653 581.458 237.995 700 268.464 700 C 337.799 700 450.884 50 450.884 50 C 450.884 50 431.579 77.549 429.969 79.573 C 415.774 97.409 400.885 114.055 385.363 130.673 C 311.84 209.39 222.258 293.258 124.52 334.529 C 96.376 346.414 67.676 355.934 38.032 362.306 C 35.691 362.809 8.636 368.131 8.636 365.693" style="stroke: rgb(0, 0, 0); fill: rgb(216, 216, 216);"/>
  <path d="M -31.487 289.834 C 157.926 336.475 540.841 341.985 639.167 330.612" style="stroke: rgb(0, 0, 0); fill: rgb(216, 216, 216);"/>
</svg>